<svg id="Layer_1" data-name="Layer 1" xmlns="http://www.w3.org/2000/svg" xmlns:xlink="http://www.w3.org/1999/xlink" viewBox="0 0 80 84"><defs><style>.cls-1{fill:#fff;}.cls-2{opacity:0.03;}.cls-3{fill:#d5b16c;}.cls-4{fill:#1d1d1b;}.cls-5{fill:url(#linear-gradient);}.cls-6{fill:#cfa868;}</style><linearGradient id="linear-gradient" x1="40.12" y1="73.42" x2="40.12" y2="38.11" gradientUnits="userSpaceOnUse"><stop offset="0" stop-color="#fff"/><stop offset="1" stop-color="#fff" stop-opacity="0"/></linearGradient></defs><rect class="cls-1" width="80" height="84"/><g class="cls-2"><path class="cls-3" d="M31.46,26.81a2.55,2.55,0,0,0-2.55,2.55v5.9A3.25,3.25,0,0,0,30,37.68l4.46,3.48,2.42,2.71L52.4,45.28V29.37a2.56,2.56,0,0,0-2.56-2.56Z"/><path class="cls-3" d="M55,26.81a2.56,2.56,0,0,0-2.56,2.55V45.28L68,43.51l8-7.17v-7a2.55,2.55,0,0,0-2.55-2.55Z"/><path class="cls-4" d="M85.31,49.35a1.78,1.78,0,0,0,1.77-1.77V43.31a5.94,5.94,0,0,0-5.94-5.94H77.69v-8A4.32,4.32,0,0,0,73.37,25H55a4.28,4.28,0,0,0-2.58.94A4.23,4.23,0,0,0,49.84,25H31.47a4.3,4.3,0,0,0-4.33,4.32v8H23.69a5.86,5.86,0,0,0-2.6.66A4.67,4.67,0,0,0,19,37.49H14.58a1.63,1.63,0,0,0-.21-1,2.72,2.72,0,0,0-1.19-2s.05-.08.06-.12a3.38,3.38,0,0,0,.2-1.19,3.87,3.87,0,0,0-.36-1.62,2.17,2.17,0,0,0-.25-.39,3.6,3.6,0,0,0,.29-.5,3.61,3.61,0,0,0,.23-1.28,4,4,0,0,0-.23-1.31,4.43,4.43,0,0,0-.49-1h0a2,2,0,0,1-.33-1,1.55,1.55,0,0,1,0-.31h0a2.69,2.69,0,0,1,.27-.71,1.58,1.58,0,0,0,.1-.48,3.42,3.42,0,0,0,1.14-.29,3.32,3.32,0,0,0,1.39.35,3.29,3.29,0,0,0,1.4-.35,3.33,3.33,0,0,0,1.4.35h.26a3.52,3.52,0,0,0,1.25-.34,3.4,3.4,0,0,0,1.82-3,3.32,3.32,0,0,0-.22-1.11h0l-.24-.83v0l-.18-.62h0L20,16.14l-.24-.81h0l-1.17-4-.52-1.79,0-.08a3,3,0,0,0-2.86-2H4.12a3,3,0,0,0-2.85,2l0,.08L.71,11.3-.88,16.65l-.19.66-.41,1.39h0l-.18.59h0l0,.06h0l-.29,1h0a3.43,3.43,0,0,0-.16,1,3.41,3.41,0,0,0,.28,1.33A3.23,3.23,0,0,0-1,23.81a3.4,3.4,0,0,0,2.29.86,3.37,3.37,0,0,0,1.4-.35,3.28,3.28,0,0,0,1.39.35,3.28,3.28,0,0,0,1.39-.35,3.3,3.3,0,0,0,1.08.27,1.78,1.78,0,0,0,.1.52,2.4,2.4,0,0,1,.28.72,1.63,1.63,0,0,1,0,.31,2,2,0,0,1-.32,1h0a4.84,4.84,0,0,0-.48.94,3.93,3.93,0,0,0-.22,1.3,3.78,3.78,0,0,0,.23,1.29,3.31,3.31,0,0,0,.3.5,2.45,2.45,0,0,0-.24.38,3.86,3.86,0,0,0-.36,1.61,3.7,3.7,0,0,0,.21,1.2.54.54,0,0,0,.07.13,3.07,3.07,0,0,0-.88.84A3,3,0,0,0,5,36.52a1.64,1.64,0,0,0-.18,1H-1.17a4.79,4.79,0,0,0-3.38,1.4,4.78,4.78,0,0,0-1.4,3.38,4.75,4.75,0,0,0,1.4,3.37,4.76,4.76,0,0,0,3.38,1.41H7.15V68.63H1.84a1.77,1.77,0,1,0,0,3.54H21.66a1.68,1.68,0,0,0,.59-.12H69a3.52,3.52,0,0,0,.8-.13,3.53,3.53,0,0,0,.63.13H85.31a1.79,1.79,0,0,0,1.25-.52,1.81,1.81,0,0,0,.52-1.25V61.73a1.77,1.77,0,1,0-3.54,0v6.78H70.45a.72.72,0,0,1-.72-.72V43.31a2.39,2.39,0,0,1,2.39-2.4h9a2.41,2.41,0,0,1,2.4,2.4v4.27a1.77,1.77,0,0,0,1.77,1.77ZM38.64,67.79V59.61H66.19v8.18a3.41,3.41,0,0,0,.15.72H38.5a4.17,4.17,0,0,0,.14-.72ZM66.19,56.07H38.64v-9H66.19v9ZM30.68,29.36a.73.73,0,0,1,.23-.55.75.75,0,0,1,.56-.23H49.84a.73.73,0,0,1,.55.23.76.76,0,0,1,.24.55V43.51h-12V43.3a5.94,5.94,0,0,0-5.93-5.93h-2v-8Zm2,11.55A2.39,2.39,0,0,1,35.1,43.3V67.79a.74.74,0,0,1-.21.51.72.72,0,0,1-.51.21H21.29V43.3a2.45,2.45,0,0,1,.7-1.69,2.37,2.37,0,0,1,1.7-.7ZM15.28,21.15ZM12.42,31.91h0ZM7,34Zm2.47-.55h0a.55.55,0,0,1-.1-.17v0a.34.34,0,0,1,0-.15,1.26,1.26,0,0,1,.18-.27h0s0,0,0-.06l0,.06h0a1.06,1.06,0,0,1,.18.27.31.31,0,0,1,0,.15v0a.7.7,0,0,1-.09.17h0c-.11.13-.09.3-.16.45-.07-.15,0-.32-.14-.45Zm.17-4.29h0a1.85,1.85,0,0,1,.1.2.3.3,0,0,1,0,.1.15.15,0,0,1,0,.06.6.6,0,0,1-.13.22h0s0,0,0,0,0,0,0-.06h0a.7.7,0,0,1-.13-.21s0-.05,0-.06a.45.45,0,0,1,0-.11.92.92,0,0,1,.1-.2h0s0-.07.05-.1,0,.07,0,.1Zm-8-8.75,0-.05h0l.18-.59h0l.41-1.39.19-.66L4.1,12.31,4.51,11H14.79l.4,1.36,1.17,4h0l.23.82.75,2.56h0l.18.62h0l.13.44a1.65,1.65,0,0,0-2.42.34,1.74,1.74,0,0,0-1.39-.72,1.76,1.76,0,0,0-1.4.72,1.73,1.73,0,0,0-1.39-.72,1.74,1.74,0,0,0-1.4.72,1.73,1.73,0,0,0-1.4-.72,1.75,1.75,0,0,0-1.39.72,1.71,1.71,0,0,0-2.79,0,1.73,1.73,0,0,0-1.39-.72,1.73,1.73,0,0,0-1.11.45l.14-.48ZM-1.17,43.51A1.26,1.26,0,0,1-2,43.14a1.22,1.22,0,0,1-.37-.87A1.22,1.22,0,0,1-2,41.39,1.21,1.21,0,0,1-1.17,41H18.21a5.94,5.94,0,0,0-.46,2.27v.21H-1.17Zm11.85,3.54h7.07V68.63H10.68V47.05Zm57.25-7.94a5.93,5.93,0,0,0-1.74,4.2v.2h-12V29.36a.8.8,0,0,1,.24-.55.73.73,0,0,1,.55-.23H73.37a.75.75,0,0,1,.55.23.73.73,0,0,1,.23.55v8h-2a5.93,5.93,0,0,0-4.19,1.74Z"/></g><rect class="cls-5" x="0.24" y="38.11" width="79.76" height="35.31"/><path class="cls-6" d="M19.44,72.17c-1.66,0-2.31-.67-2.31-1.92a2.89,2.89,0,0,1,.22-1.09l.65-.11a2.67,2.67,0,0,0-.25,1.13c0,1,.39,1.51,1.77,1.51h.55V69.13A6.26,6.26,0,0,1,21.28,69c1.1,0,1.46.54,1.46,1.45v1.24h.66v.48H22.15V70.52c0-.75-.27-1-.93-1a3,3,0,0,0-.55.06v2.63Zm-.59,1.33a.34.34,0,0,1-.35-.35.35.35,0,1,1,.7,0A.35.35,0,0,1,18.85,73.5Zm1,0a.35.35,0,0,1-.35-.35.35.35,0,0,1,.35-.35.35.35,0,0,1,.35.35A.35.35,0,0,1,19.82,73.5Z"/><path class="cls-6" d="M23.31,71.69h.92V67.53h.61v4.16h.72v.48H23.31Z"/><path class="cls-6" d="M25.46,71.69h2.72a5.27,5.27,0,0,0,0-.68c0-1-.36-1.48-1.44-1.48a4.4,4.4,0,0,0-.73,0V69.1a6.06,6.06,0,0,1,.79,0c1.44,0,2,.66,2,1.91a7.32,7.32,0,0,1-.1,1.21H25.46ZM26.66,68a.36.36,0,0,1,.35-.36.36.36,0,1,1,0,.71A.35.35,0,0,1,26.66,68Z"/><path class="cls-6" d="M29.89,67.53h.61v4.64h-.61Z"/><path class="cls-6" d="M31.47,71.69h2.11a2.07,2.07,0,0,0-1.66-2.23l.15-.51a2.6,2.6,0,0,1,2.11,2.74h.5v.48H31.47Z"/><path class="cls-6" d="M34.59,71.69h.92V67.53h.61v4.64H34.59Z"/><path class="cls-6" d="M37.37,67.53H38v4.64h-.61Z"/><path class="cls-6" d="M43.58,72.17c-1.2,0-1.68-.53-1.73-1.39h-.18c-.47,0-.63.28-.51,1l.34,2.15h-.59l-.34-2.09c-.14-.89.18-1.49,1.13-1.49h.18A1.52,1.52,0,0,1,43.5,69a1.29,1.29,0,0,1,1.4,1.48v1.21h.66v.48Zm.73-1.59c0-.79-.32-1.1-.87-1.1a1,1,0,0,0-1,1.1c0,.75.36,1.11,1.2,1.11h.65Z"/><path class="cls-6" d="M45.47,71.69h1.32V69.08h.61v2.61h.72v.48H45.47ZM46,73.5a.34.34,0,0,1-.35-.35.35.35,0,1,1,.7,0A.35.35,0,0,1,46,73.5Zm1,0a.34.34,0,0,1-.35-.35A.35.35,0,0,1,47,72.8a.34.34,0,0,1,.34.35A.35.35,0,0,1,47,73.5Z"/><path class="cls-6" d="M49,71.61a.87.87,0,0,1-.87.56H48v-.48h.13c.33,0,.57-.19.57-1A1.56,1.56,0,0,1,50.34,69c1,0,1.45.56,1.45,1.56v1.13h.65v.48H50.37C49.62,72.17,49.21,72,49,71.61Zm2.19-1c0-.85-.31-1.18-.9-1.18s-.95.45-.95,1.18.31,1,1.11,1h.74Z"/><path class="cls-6" d="M56.83,71.69h.7v.48H52.35v-.48h.91V69.08h.6v.25a9.34,9.34,0,0,1-.07,1.18h0A2,2,0,0,1,55.59,69c.87,0,1.28.62,1.28,1.63C56.87,71,56.86,71.34,56.83,71.69Zm-1.34-2.2c-.89,0-1.52,1.14-1.64,2.2h2.36c0-.32,0-.68,0-1C56.25,70,56.05,69.49,55.49,69.49Z"/><path class="cls-6" d="M57.44,71.69h1V69.08H59v2.61h.68v.48H57.44Zm.32-3.57a.35.35,0,1,1,.7,0,.35.35,0,0,1-.35.35A.34.34,0,0,1,57.76,68.12Zm1,0a.35.35,0,0,1,.35-.35.34.34,0,0,1,.34.35.35.35,0,0,1-.34.35A.34.34,0,0,1,58.73,68.12Z"/><path class="cls-6" d="M59.58,71.69h.92V67.53h.61v4.64H59.58Z"/><path class="cls-6" d="M62.36,67.53H63v4.64h-.61Z"/><path class="cls-3" d="M34.64,31.73A1.67,1.67,0,0,0,33,33.4v3.84a2.1,2.1,0,0,0,.71,1.57l2.9,2.27,1.58,1.77,10.11.91V33.4a1.67,1.67,0,0,0-1.67-1.67Z"/><path class="cls-3" d="M50,31.73a1.67,1.67,0,0,0-1.67,1.67V43.76l10.12-1.15,5.18-4.67V33.4a1.66,1.66,0,0,0-1.66-1.67Z"/><path class="cls-4" d="M69.71,46.41a1.15,1.15,0,0,0,1.15-1.15V42.48A3.86,3.86,0,0,0,67,38.61H64.74V33.4a2.78,2.78,0,0,0-.82-2,2.86,2.86,0,0,0-2-.82H50a2.78,2.78,0,0,0-1.68.61,2.76,2.76,0,0,0-1.68-.61h-12a2.8,2.8,0,0,0-2.82,2.82v5.21H29.57a3.88,3.88,0,0,0-1.69.43,3,3,0,0,0-1.36-.35H23.64a1.09,1.09,0,0,0-.13-.66,1.82,1.82,0,0,0-.78-1.28s0,0,0-.08a2.41,2.41,0,0,0,.13-.78,2.54,2.54,0,0,0-.24-1,1.07,1.07,0,0,0-.16-.25,2.17,2.17,0,0,0,.19-.33,2.43,2.43,0,0,0,0-1.68,3,3,0,0,0-.32-.62h0a1.28,1.28,0,0,1-.21-.68,1.21,1.21,0,0,1,0-.19h0a1.84,1.84,0,0,1,.17-.47.81.81,0,0,0,.06-.31,2.3,2.3,0,0,0,.75-.19,1.9,1.9,0,0,0,1.81,0,2.23,2.23,0,0,0,.92.23h.17a2.21,2.21,0,0,0,.81-.22,2.15,2.15,0,0,0,.87-.82,2.18,2.18,0,0,0,.32-1.14,2.3,2.3,0,0,0-.14-.73h0l-.16-.53v0l-.12-.4h0l-.48-1.67L27,24.26h0l-.76-2.61-.34-1.17,0-.05A2,2,0,0,0,24,19.1h-7.2A2,2,0,0,0,15,20.42l0,0-.34,1.17-1,3.48-.13.43-.26.9h0l-.12.39h0v0h0l-.19.64h0a2.05,2.05,0,0,0-.1.65,2.4,2.4,0,0,0,.17.87,2.11,2.11,0,0,0,.55.75,2.12,2.12,0,0,0,2.4.33,1.9,1.9,0,0,0,1.81,0,2.13,2.13,0,0,0,.7.18,1.21,1.21,0,0,0,.07.33,1.5,1.5,0,0,1,.18.48,1.13,1.13,0,0,1-.19.87h0a3.25,3.25,0,0,0-.31.62,2.68,2.68,0,0,0-.15.84,2.31,2.31,0,0,0,.16.84,2.17,2.17,0,0,0,.19.33c-.05.09-.11.15-.16.25a2.66,2.66,0,0,0-.23,1,2.24,2.24,0,0,0,.14.79s0,0,0,.08a2.14,2.14,0,0,0-.57.55,1.94,1.94,0,0,0-.2.75,1.07,1.07,0,0,0-.12.63H13.38a3.11,3.11,0,1,0,0,6.22H18.8V59H15.34a1.16,1.16,0,0,0,0,2.31H28.25a1.29,1.29,0,0,0,.39-.08H59.1a3,3,0,0,0,.52-.08,2.7,2.7,0,0,0,.41.08h9.68a1.13,1.13,0,0,0,.81-.34,1.17,1.17,0,0,0,.34-.81V54.48a1.16,1.16,0,0,0-2.31,0V58.9H60a.55.55,0,0,1-.33-.14.45.45,0,0,1-.14-.33v-16a1.55,1.55,0,0,1,1.56-1.56H67a1.55,1.55,0,0,1,1.56,1.56v2.78a1.15,1.15,0,0,0,1.16,1.15Zm-30.4,12V53.1H57.25v5.33a2.63,2.63,0,0,0,.1.47H39.22a2.6,2.6,0,0,0,.09-.47Zm17.94-7.64H39.31V44.91H57.25v5.88ZM34.13,33.4a.5.5,0,0,1,.15-.37.54.54,0,0,1,.36-.15h12A.59.59,0,0,1,47,33a.54.54,0,0,1,.15.37v9.21H39.31v-.13a3.86,3.86,0,0,0-3.86-3.87H34.13V33.4Zm1.32,7.52a1.52,1.52,0,0,1,1.1.46,1.54,1.54,0,0,1,.46,1.1v16a.45.45,0,0,1-.14.33.55.55,0,0,1-.33.14H28V42.48a1.5,1.5,0,0,1,.46-1.1,1.53,1.53,0,0,1,1.1-.46ZM24.1,28.05Zm-1.87,7Zm-3.5,1.33h0ZM20.34,36h0a.3.3,0,0,1-.07-.11v0a.23.23,0,0,1,0-.09,1.4,1.4,0,0,1,.12-.18h0s0,0,0,0l0,.05h0a1.4,1.4,0,0,1,.12.18.23.23,0,0,1,0,.09v0a.67.67,0,0,1-.06.11h0c-.07.08-.05.19-.1.29,0-.1,0-.21-.09-.29Zm.11-2.8h0a.88.88,0,0,1,.07.13.26.26,0,0,1,0,.07v0a.56.56,0,0,1-.09.14h0l0,0,0,0h0a.8.8,0,0,1-.08-.14.08.08,0,0,1,0,0,.26.26,0,0,1,0-.07l.07-.13h0l0-.06,0,.06Zm-5.19-5.7v0h0l.12-.38h0l.26-.91.13-.43,1-3.48.26-.89h6.7l.26.89.76,2.61h0l.15.53.49,1.67h0l.12.41h0l.08.29a1.08,1.08,0,0,0-.66-.25,1.12,1.12,0,0,0-.91.47,1.12,1.12,0,0,0-1.82,0,1.12,1.12,0,0,0-1.82,0,1.12,1.12,0,0,0-1.82,0,1.12,1.12,0,0,0-1.82,0,1.07,1.07,0,0,0-1.62-.18l.09-.31ZM13.38,42.61a.8.8,0,0,1-.57-.24.78.78,0,0,1-.23-.57.79.79,0,0,1,.8-.8H26a3.8,3.8,0,0,0-.3,1.48v.13H13.38Zm7.72,2.3h4.61V59H21.1V44.91Zm37.29-5.16a3.83,3.83,0,0,0-1.14,2.73v.13h-7.8V33.4A.5.5,0,0,1,49.6,33a.56.56,0,0,1,.36-.15h12a.56.56,0,0,1,.36.15.54.54,0,0,1,.15.37v5.21H61.12a3.85,3.85,0,0,0-2.73,1.14Z"/></svg>