<svg id="Layer_1" data-name="Layer 1" xmlns="http://www.w3.org/2000/svg" xmlns:xlink="http://www.w3.org/1999/xlink" viewBox="0 0 80 84"><defs><style>.cls-1{fill:#fff;}.cls-2{opacity:0.03;}.cls-3,.cls-4{fill:#d5b16c;}.cls-3{stroke:#1d1d1b;stroke-miterlimit:10;}.cls-5{fill:#1d1d1b;}.cls-6{fill:url(#linear-gradient);}.cls-7{fill:#d0a969;}</style><linearGradient id="linear-gradient" x1="40.12" y1="73.42" x2="40.12" y2="38.11" gradientUnits="userSpaceOnUse"><stop offset="0" stop-color="#fff"/><stop offset="1" stop-color="#fff" stop-opacity="0"/></linearGradient></defs><rect class="cls-1" width="80" height="84"/><g class="cls-2"><ellipse class="cls-3" cx="39.99" cy="16.12" rx="6.97" ry="7.18"/><path class="cls-4" d="M40.22,41h2.65a8.18,8.18,0,0,0,.64,1.69c.09.18.19.36.29.53l-1.88,1.89a.35.35,0,0,0,0,.5L44.24,48a.36.36,0,0,0,.51,0l1.9-1.9A8,8,0,0,0,48,46.7l.1,0a5.83,5.83,0,0,0,.71.22v2.71a.37.37,0,0,0,.36.36h3.28a.36.36,0,0,0,.36-.36V46.91A8.11,8.11,0,0,0,55,46l2,2a.36.36,0,0,0,.51,0l2.32-2.32a.35.35,0,0,0,0-.5l-2-2A8,8,0,0,0,58.69,41h2.8a.36.36,0,0,0,.36-.36V37.38a.36.36,0,0,0-.36-.36h-2.8a8,8,0,0,0-.88-2.14l2-2a.36.36,0,0,0,0-.51l-2.32-2.32a.36.36,0,0,0-.51,0l-2,2a8.11,8.11,0,0,0-2.16-.91V28.38a.36.36,0,0,0-.36-.36H49.21a.36.36,0,0,0-.36.36v2.71l-.37.1c-.26.08-.51.16-.75.26a7.73,7.73,0,0,0-1.08.53l-1.9-1.9a.36.36,0,0,0-.51,0l-1.73,1.73-.59.59a.36.36,0,0,0,0,.51l1.88,1.88A8.28,8.28,0,0,0,42.87,37H40.22a.36.36,0,0,0-.36.36v3.28a.36.36,0,0,0,.36.36Z"/><path class="cls-5" d="M23.83,45.4a3.18,3.18,0,0,0,1,.59,3.24,3.24,0,0,0,1.1.2,3.15,3.15,0,0,0,1.31-.28,3.24,3.24,0,0,0,1.11-.82L31.05,42v3.1h0a3.13,3.13,0,0,0,0,.44V68.89A4.14,4.14,0,0,0,35.14,73a3.62,3.62,0,0,0,.82-.09,3,3,0,0,0,.55-.22,3,3,0,0,0,.35-.21l.41-.35c.12-.11.23-.23.34-.34h0a4.06,4.06,0,0,0,.89-1.31,4.13,4.13,0,0,0,.32-1.61V55H40.4V69a5.33,5.33,0,0,0,.21,1.5,4.51,4.51,0,0,0,.47,1,3.43,3.43,0,0,0,1.24,1.18,3.48,3.48,0,0,0,.83.32,3.59,3.59,0,0,0,.93.11,4.13,4.13,0,0,0,1.61-.32A4.06,4.06,0,0,0,47,71.89h0a4.22,4.22,0,0,0,.89-1.31A4.13,4.13,0,0,0,48.21,69V55.84a1.09,1.09,0,1,0-2.18,0V69a1.94,1.94,0,0,1-.15.76,2,2,0,0,1-.42.62,1.93,1.93,0,0,1-.63.42,1.87,1.87,0,0,1-.75.16,1.6,1.6,0,0,1-.64-.14,1.27,1.27,0,0,1-.33-.24,1.6,1.6,0,0,1-.38-.63,2.71,2.71,0,0,1-.15-1V53.86a1.14,1.14,0,0,0-.32-.77,1.12,1.12,0,0,0-.77-.32H37.74a1.09,1.09,0,0,0-1.09,1.09v15a1.87,1.87,0,0,1-.16.75,1.93,1.93,0,0,1-.42.63l-.35.34a1.31,1.31,0,0,1-.16.13.42.42,0,0,1-.13.07.85.85,0,0,1-.29,0,1.86,1.86,0,0,1-.75-.15,2.08,2.08,0,0,1-.87-.71,2,2,0,0,1-.33-1.09V45.54a.93.93,0,0,1,0-.24,1.36,1.36,0,0,0,0-.2v-6a1.09,1.09,0,0,0-1.91-.72L26.7,43.66a1,1,0,0,1-.35.26,1,1,0,0,1-.42.09,1,1,0,0,1-.35-.06,1.18,1.18,0,0,1-.32-.19A1.1,1.1,0,0,1,25,43.4a1,1,0,0,1-.09-.41,1.13,1.13,0,0,1,.06-.36,1.5,1.5,0,0,1,.19-.32l9.09-10.38.12-.12a1,1,0,0,0,.17-.18h0a6.34,6.34,0,0,1,7.08-2.19,5.28,5.28,0,0,1,1.13.59l-1,1-.59.59a1.47,1.47,0,0,0-.43,1,1.45,1.45,0,0,0,.11.54,1.39,1.39,0,0,0,.32.48h0L42.47,35a9.35,9.35,0,0,0-.38.92H40.22a1.56,1.56,0,0,0-.57.11,1.49,1.49,0,0,0-.63.53,1.41,1.41,0,0,0-.25.81v3.28a1.47,1.47,0,0,0,.11.56,1.55,1.55,0,0,0,.52.64,1.52,1.52,0,0,0,.82.25h1.91a9.15,9.15,0,0,0,.34.92l-1.32,1.32a1.51,1.51,0,0,0-.43,1,1.54,1.54,0,0,0,.11.55,1.49,1.49,0,0,0,.32.48h0l2.32,2.32h0a1.51,1.51,0,0,0,1,.43A1.54,1.54,0,0,0,45,49a1.49,1.49,0,0,0,.48-.32l1.36-1.36c.26.12.51.26.78.36h0l.08,0v1.9a1.52,1.52,0,0,0,.12.56,1.48,1.48,0,0,0,.52.64,1.52,1.52,0,0,0,.82.24h3.27a1.52,1.52,0,0,0,.57-.11,1.4,1.4,0,0,0,.63-.52,1.44,1.44,0,0,0,.25-.81v-2c.29-.11.58-.23.86-.36l1.39,1.39a1.39,1.39,0,0,0,.48.32,1.5,1.5,0,0,0,.55.11,1.45,1.45,0,0,0,.54-.11,1.54,1.54,0,0,0,.49-.32l2.31-2.32h0a1.68,1.68,0,0,0,.32-.48,1.52,1.52,0,0,0,.1-.55,1.44,1.44,0,0,0-.1-.54,1.31,1.31,0,0,0-.32-.48h0l-1.42-1.42c.12-.27.24-.54.34-.82h2a1.47,1.47,0,0,0,1.2-.64,1.44,1.44,0,0,0,.25-.81V37.38a1.56,1.56,0,0,0-.11-.57,1.49,1.49,0,0,0-.53-.63,1.41,1.41,0,0,0-.81-.25h-2c-.1-.28-.22-.56-.34-.83l1.42-1.42h0a1.39,1.39,0,0,0,.32-.48,1.44,1.44,0,0,0,.1-.54,1.49,1.49,0,0,0-.1-.55,1.68,1.68,0,0,0-.32-.48h0l-2.32-2.32h0a1.38,1.38,0,0,0-.49-.32,1.27,1.27,0,0,0-.54-.11,1.49,1.49,0,0,0-.55.1,1.55,1.55,0,0,0-.48.32l-1.39,1.4c-.28-.13-.57-.25-.86-.36v-2a1.47,1.47,0,0,0-.11-.56,1.43,1.43,0,0,0-.52-.64,1.47,1.47,0,0,0-.82-.25H49.22a1.35,1.35,0,0,0-.57.12,1.4,1.4,0,0,0-.63.52,1.42,1.42,0,0,0-.26.81v1.91l-.44.15h0c-.16.07-.3.15-.45.23l-1.35-1.36A1.68,1.68,0,0,0,45,29h-.1a1.11,1.11,0,0,0-.28-.39,8.47,8.47,0,0,0-2.35-1.22,8.51,8.51,0,0,0-6.55.48,8.77,8.77,0,0,0-2.8,2.3,3.73,3.73,0,0,0-.35.34L23.52,40.88a3.18,3.18,0,0,0-.59,1,3.25,3.25,0,0,0-.2,1.11,3.22,3.22,0,0,0,1.1,2.41Zm18.71-2.19h0Zm3.34-10.45a1.07,1.07,0,0,0,1.32.16,7.44,7.44,0,0,1,.94-.46h0c.21-.08.42-.16.64-.22h0a3,3,0,0,1,.32-.09,1.09,1.09,0,0,0,.83-1.06v-2h1.83v2a1.09,1.09,0,0,0,.81,1.05,6.81,6.81,0,0,1,1.86.79,1.09,1.09,0,0,0,1.34-.16l1.43-1.44,1.29,1.29L57,34.11a1.1,1.1,0,0,0-.16,1.33,7.44,7.44,0,0,1,.76,1.84,1.08,1.08,0,0,0,1,.83h2.07v1.82H58.69a1.08,1.08,0,0,0-1,.82,7.35,7.35,0,0,1-.76,1.85A1.09,1.09,0,0,0,57,43.92l1.46,1.46-1.29,1.29-1.43-1.44a1.08,1.08,0,0,0-1.34-.16,7.49,7.49,0,0,1-1.86.79,1.08,1.08,0,0,0-.81,1v2H49.94V47a1.08,1.08,0,0,0-.83-1.06c-.21,0-.42-.12-.62-.18h0l0,0h0a6.69,6.69,0,0,1-1.21-.57,1.09,1.09,0,0,0-1.32.17l-1.39,1.39-1.28-1.29L44.57,44a1.09,1.09,0,0,0,.17-1.33c-.09-.15-.18-.3-.26-.46h0a6.64,6.64,0,0,1-.55-1.47,1.09,1.09,0,0,0-1.06-.82H41V38.11h1.92a1.09,1.09,0,0,0,1.06-.83,6.91,6.91,0,0,1,.8-1.92A1.09,1.09,0,0,0,44.57,34l-1.36-1.36.07-.08,1.21-1.21,1.39,1.39Z"/><path class="cls-5" d="M32,19.47a1.73,1.73,0,0,0,1,.29h.48A7,7,0,0,0,40,24.23a7,7,0,0,0,2.34-.4A7.14,7.14,0,0,0,45.17,22a6.83,6.83,0,0,0,1.31-2.19H47a1.86,1.86,0,0,0,.67-.13,1.72,1.72,0,0,0,.74-.62,1.65,1.65,0,0,0,.3-1V16.18a1.72,1.72,0,0,0-.83-1.46,1.66,1.66,0,0,0-.55-.15,7.49,7.49,0,0,0-15,0l-.11,0a1.74,1.74,0,0,0-.73.61,1.72,1.72,0,0,0-.29.95v1.88a1.8,1.8,0,0,0,.13.66,1.69,1.69,0,0,0,.62.75Zm7.14-5.24h0A8.59,8.59,0,0,0,40,13.05a7.07,7.07,0,0,0,1,1.28,7.48,7.48,0,0,0,4,2.15h0l.78.15h0l.21,0h.63v.92H33.42v-.93h0l.28,0h0l.47,0h0a7.49,7.49,0,0,0,4.92-2.36Zm2.46,7.54a4.74,4.74,0,0,1-1.61.28,4.9,4.9,0,0,1-3.59-1.58,4,4,0,0,1-.51-.71h8.21A4.91,4.91,0,0,1,43,21a4.69,4.69,0,0,1-1.39.76Zm2.69-9.83a5.2,5.2,0,0,1,.81,2.32,5.23,5.23,0,0,1-2.61-1.45A5.32,5.32,0,0,1,41.05,10c0-.11-.1-.18-.15-.27a4.92,4.92,0,0,1,1,.31,5.29,5.29,0,0,1,2.35,1.93Zm-7.4-1.44a5.34,5.34,0,0,1,2.17-.79c0,.09-.13.16-.15.26a5.37,5.37,0,0,1-1.36,2.77h0a5.3,5.3,0,0,1-3,1.59,5.53,5.53,0,0,1,.36-1.48,5.37,5.37,0,0,1,1.94-2.35Z"/><polygon class="cls-5" points="32.26 14.62 32.26 14.62 32.26 14.62 32.26 14.62 32.26 14.62 32.26 14.62"/><polygon class="cls-5" points="41.15 31.63 41.15 31.63 41.15 31.63 41.15 31.63 41.15 31.63 41.15 31.63"/><polygon class="cls-5" points="58.24 48.72 58.24 48.72 58.24 48.72 58.24 48.72 58.24 48.72 58.24 48.72"/><path class="cls-5" d="M47.51,43.22h0a5.15,5.15,0,0,0,5,.59,5.2,5.2,0,0,0,2.23-1.75,5.14,5.14,0,0,0,1-2.72c0-.11,0-.21,0-.32a5.23,5.23,0,0,0-.37-1.94,5.19,5.19,0,0,0-4.44-3.23h-.36a5.09,5.09,0,0,0-1.62.26,4.82,4.82,0,0,0-1.41.72h0a5,5,0,0,0-1.46,1.61h0A5.07,5.07,0,0,0,45.36,39a5.13,5.13,0,0,0,.58,2.4,5.33,5.33,0,0,0,1.57,1.8Zm.43-5.7a2.9,2.9,0,0,1,1.66-1.35,2.89,2.89,0,0,1,.94-.15h.21a2.67,2.67,0,0,1,1.09.29,3.06,3.06,0,0,1,1.23,1.08A3.16,3.16,0,0,1,53.54,39c0,.06,0,.13,0,.18h0A3.07,3.07,0,0,1,53,40.78a3,3,0,0,1-1.29,1h0a2.85,2.85,0,0,1-1.13.23,2.89,2.89,0,0,1-.94-.15,3.06,3.06,0,0,1-1.73-1.46A3.1,3.1,0,0,1,47.53,39a2.93,2.93,0,0,1,.41-1.5Z"/></g><rect class="cls-6" x="11.82" y="38.11" width="56.6" height="35.31"/><ellipse class="cls-3" cx="41.01" cy="24.81" rx="4.46" ry="4.6"/><path class="cls-4" d="M41.16,40.74h1.7a5.1,5.1,0,0,0,.41,1.09c0,.11.12.23.18.34l-1.2,1.2a.24.24,0,0,0,0,.33l1.48,1.48a.24.24,0,0,0,.33,0L45.28,44a5.53,5.53,0,0,0,.89.41l.06,0,.46.14v1.73a.23.23,0,0,0,.23.23H49a.23.23,0,0,0,.23-.23V44.51a4.75,4.75,0,0,0,1.37-.58l1.26,1.25a.22.22,0,0,0,.32,0l1.48-1.48a.24.24,0,0,0,0-.33l-1.26-1.26A5,5,0,0,0,53,40.74h1.79a.23.23,0,0,0,.23-.23V38.42a.23.23,0,0,0-.23-.24H53a5.07,5.07,0,0,0-.56-1.36l1.26-1.26a.24.24,0,0,0,0-.33L52.2,33.75a.22.22,0,0,0-.32,0L50.62,35a5.07,5.07,0,0,0-1.37-.59V32.66a.23.23,0,0,0-.23-.23h-2.1a.23.23,0,0,0-.23.23v1.73l-.24.07a3.38,3.38,0,0,0-.48.16,5.52,5.52,0,0,0-.69.34l-1.22-1.21a.24.24,0,0,0-.33,0l-1.1,1.1-.38.38a.24.24,0,0,0,0,.33l1.2,1.2a5.54,5.54,0,0,0-.59,1.42h-1.7a.23.23,0,0,0-.23.24v2.09a.23.23,0,0,0,.23.23Z"/><path class="cls-5" d="M30.67,43.55a2.09,2.09,0,0,0,.64.38,2.13,2.13,0,0,0,1.54,0,2,2,0,0,0,.71-.53l1.73-2v2h0a2.83,2.83,0,0,0,0,.29V58.58a2.56,2.56,0,0,0,.21,1,2.65,2.65,0,0,0,2.43,1.62,1.88,1.88,0,0,0,.53-.07,2.09,2.09,0,0,0,.35-.13l.22-.14.26-.22.22-.22h0a2.84,2.84,0,0,0,.57-.84,2.75,2.75,0,0,0,.21-1V49.66h1v9a3.37,3.37,0,0,0,.13,1,3,3,0,0,0,.3.65,2.39,2.39,0,0,0,.79.76,2.52,2.52,0,0,0,.54.21,2.88,2.88,0,0,0,.59.07,2.75,2.75,0,0,0,1-.21,2.71,2.71,0,0,0,.84-.57h0a2.71,2.71,0,0,0,.57-.84,2.75,2.75,0,0,0,.21-1v-8.4a.7.7,0,1,0-1.4,0v8.4a1.16,1.16,0,0,1-.1.49,1.14,1.14,0,0,1-.27.39,1.26,1.26,0,0,1-.88.37,1,1,0,0,1-.41-.08.65.65,0,0,1-.21-.16,1,1,0,0,1-.24-.4,1.85,1.85,0,0,1-.1-.61V49a.7.7,0,0,0-.7-.69h-2.4a.68.68,0,0,0-.69.69v9.62a1.29,1.29,0,0,1-.1.48,1.41,1.41,0,0,1-.27.4l-.23.22-.1.09-.09,0a.57.57,0,0,1-.18,0,1.12,1.12,0,0,1-.48-.1,1.21,1.21,0,0,1-.55-.45,1.24,1.24,0,0,1-.22-.7V43.64a.78.78,0,0,1,0-.16s0-.09,0-.13V39.52a.69.69,0,0,0-.45-.65.68.68,0,0,0-.77.19l-3,3.38a.69.69,0,0,1-.22.16.66.66,0,0,1-.27.06.62.62,0,0,1-.23,0,.82.82,0,0,1-.2-.12.72.72,0,0,1-.17-.23.76.76,0,0,1-.05-.27.69.69,0,0,1,.16-.43l5.81-6.64a.6.6,0,0,1,.08-.08l.11-.11h0a4.13,4.13,0,0,1,1.41-1.18,4,4,0,0,1,1.83-.43,4.25,4.25,0,0,1,1.29.2,3.81,3.81,0,0,1,.72.38l-.64.65-.38.38a1,1,0,0,0-.21.3,1.15,1.15,0,0,0-.07.35,1,1,0,0,0,.07.35,1.06,1.06,0,0,0,.21.31h0l.84.85a6.07,6.07,0,0,0-.24.59h-1.2a.86.86,0,0,0-.36.07.91.91,0,0,0-.41.34.89.89,0,0,0-.16.52v2.09a1,1,0,0,0,.08.37.92.92,0,0,0,.33.4.94.94,0,0,0,.52.16h1.22a6,6,0,0,0,.22.59l-.84.85a1.06,1.06,0,0,0-.21.31.89.89,0,0,0,0,.69,1,1,0,0,0,.21.31h0l1.48,1.49h0a1,1,0,0,0,.31.21.89.89,0,0,0,.69,0,.92.92,0,0,0,.31-.2l.88-.88a4.37,4.37,0,0,0,.49.23h0l.05,0v1.21a1,1,0,0,0,.07.36,1,1,0,0,0,.34.41.94.94,0,0,0,.52.16H49a.9.9,0,0,0,.36-.08.92.92,0,0,0,.4-.33.94.94,0,0,0,.16-.52V45a5.31,5.31,0,0,0,.55-.23l.89.9A1,1,0,0,0,52,46a1.09,1.09,0,0,0,.35-.07,1.06,1.06,0,0,0,.31-.21l1.48-1.48h0a.81.81,0,0,0,.21-.31.83.83,0,0,0,.07-.34.84.84,0,0,0-.07-.35.87.87,0,0,0-.2-.31h0L53.27,42a4.87,4.87,0,0,0,.21-.53h1.29a1.16,1.16,0,0,0,.37-.07.94.94,0,0,0,.4-.34.91.91,0,0,0,.16-.52V38.42a.9.9,0,0,0-.07-.37.94.94,0,0,0-.34-.4.91.91,0,0,0-.52-.16H53.48a4.87,4.87,0,0,0-.21-.53l.91-.91h0a.87.87,0,0,0,.2-.31.84.84,0,0,0,.07-.35.91.91,0,0,0-.07-.35.86.86,0,0,0-.21-.3h0l-1.49-1.49h0a1.06,1.06,0,0,0-.31-.21A1.09,1.09,0,0,0,52,33a1,1,0,0,0-.35.07,1.06,1.06,0,0,0-.31.21l-.89.89a5.31,5.31,0,0,0-.55-.23V32.66a.86.86,0,0,0-.07-.36,1,1,0,0,0-.33-.41.94.94,0,0,0-.52-.16h-2.1a1,1,0,0,0-.36.07,1,1,0,0,0-.41.34.91.91,0,0,0-.16.52v1.22l-.29.1h0l-.28.14-.87-.87a.92.92,0,0,0-.31-.2h-.06a.64.64,0,0,0-.18-.25,5.42,5.42,0,0,0-3.23-1.06,5.38,5.38,0,0,0-2.46.59,5.54,5.54,0,0,0-1.79,1.47,1.58,1.58,0,0,0-.23.22l-5.81,6.64a2.05,2.05,0,0,0-.38.65A1.85,1.85,0,0,0,30,42a2,2,0,0,0,.18.84,2,2,0,0,0,.52.71Zm12-1.4h0Zm2.13-6.69a.71.71,0,0,0,.85.11,3.36,3.36,0,0,1,.6-.3h0a2.83,2.83,0,0,1,.41-.14h0l.2,0a.71.71,0,0,0,.53-.68V33.13h1.17v1.28a.7.7,0,0,0,.52.68,4.62,4.62,0,0,1,1.19.5.7.7,0,0,0,.86-.1l.92-.92.82.82-.93.94a.68.68,0,0,0-.11.84,4.46,4.46,0,0,1,.49,1.19.68.68,0,0,0,.67.52h1.33v1.17H53a.68.68,0,0,0-.67.52,4.59,4.59,0,0,1-.49,1.19.68.68,0,0,0,.11.84l.93.94-.82.82-.92-.92a.7.7,0,0,0-.86-.1,4.62,4.62,0,0,1-1.19.5.69.69,0,0,0-.52.67V45.8H47.38V44.54a.71.71,0,0,0-.53-.68,2.52,2.52,0,0,1-.39-.12H46.4a4.2,4.2,0,0,1-.77-.37.71.71,0,0,0-.85.11l-.88.89-.83-.82.88-.88a.7.7,0,0,0,.1-.85l-.16-.29h0a4.23,4.23,0,0,1-.35-.94.7.7,0,0,0-.68-.52H41.63V38.88h1.23a.7.7,0,0,0,.68-.52,4.5,4.5,0,0,1,.51-1.24.7.7,0,0,0-.1-.85l-.88-.88,0,0,.78-.77.88.89Z"/><path class="cls-5" d="M35.89,27a1.18,1.18,0,0,0,.62.18h.31a4.59,4.59,0,0,0,1.4,1.9,4.49,4.49,0,0,0,4.28.7,4.43,4.43,0,0,0,1.83-1.2,4.5,4.5,0,0,0,.84-1.4h.34a1.16,1.16,0,0,0,.42-.08,1.1,1.1,0,0,0,.48-.4,1.05,1.05,0,0,0,.19-.61v-1.2a1,1,0,0,0-.14-.53,1.07,1.07,0,0,0-.39-.4.83.83,0,0,0-.35-.1,4.9,4.9,0,0,0-.36-1.64,4.8,4.8,0,0,0-4.43-2.94,4.66,4.66,0,0,0-1.87.38,4.74,4.74,0,0,0-2.92,4.22h-.07a1.08,1.08,0,0,0-.47.4,1,1,0,0,0-.19.6v1.2a1,1,0,0,0,.09.43,1.14,1.14,0,0,0,.39.48Zm4.57-3.36h0a5.05,5.05,0,0,0,.53-.75,4.91,4.91,0,0,0,.62.82A4.8,4.8,0,0,0,44.15,25h0l.5.1h.55v.6H36.81v-.6H37l.29,0h0a4.75,4.75,0,0,0,3.15-1.52ZM42,28.43a3.12,3.12,0,0,1-3.33-.83,3,3,0,0,1-.33-.46h5.26a3,3,0,0,1-.71.8,3,3,0,0,1-.89.49Zm1.72-6.29a3.41,3.41,0,0,1,.52,1.48,3.4,3.4,0,0,1-1.67-.92,3.48,3.48,0,0,1-.92-1.82.61.61,0,0,0-.09-.18,3.6,3.6,0,0,1,.66.2,3.42,3.42,0,0,1,1.5,1.24ZM39,21.22a3.38,3.38,0,0,1,1.39-.51c0,.06-.08.1-.09.16a3.38,3.38,0,0,1-.88,1.78h0a3.39,3.39,0,0,1-1.89,1,3.67,3.67,0,0,1,.23-1A3.49,3.49,0,0,1,39,21.22Z"/><polygon class="cls-5" points="36.06 23.85 36.07 23.85 36.07 23.85 36.06 23.85 36.06 23.85 36.06 23.85"/><polygon class="cls-5" points="41.76 34.74 41.76 34.74 41.76 34.74 41.76 34.74 41.76 34.74 41.76 34.74"/><polygon class="cls-5" points="52.7 45.67 52.7 45.67 52.69 45.67 52.7 45.67 52.7 45.67 52.7 45.67"/><path class="cls-5" d="M45.82,42.15h0a3,3,0,0,0,.9.46,3.18,3.18,0,0,0,1,.17,3.34,3.34,0,0,0,2.69-1.37,3.35,3.35,0,0,0,.62-1.74c0-.07,0-.14,0-.21a3.31,3.31,0,0,0-1.35-2.66A3.2,3.2,0,0,0,48,36.16h-.24a3.18,3.18,0,0,0-1,.17,3,3,0,0,0-.9.46h0a3.41,3.41,0,0,0-.93,1h0a3.31,3.31,0,0,0-.44,1.65A3.43,3.43,0,0,0,44.82,41a3.47,3.47,0,0,0,1,1.15Zm.28-3.64a1.94,1.94,0,0,1,.54-.6,1.84,1.84,0,0,1,.52-.27,2,2,0,0,1,.6-.09h.14a1.94,1.94,0,0,1,1.48.88,1.91,1.91,0,0,1,.3,1v.12h0a1.91,1.91,0,0,1-1.19,1.66h0a1.94,1.94,0,0,1-.73.14,2,2,0,0,1-.6-.09,1.84,1.84,0,0,1-.52-.27,1.88,1.88,0,0,1-.58-.67,1.86,1.86,0,0,1-.22-.89,1.9,1.9,0,0,1,.26-1Z"/><path class="cls-7" d="M15.7,72.17H14.3c-1.66,0-2.31-.67-2.31-1.92a2.89,2.89,0,0,1,.22-1.09l.64-.11a2.83,2.83,0,0,0-.25,1.13c0,1,.41,1.51,1.7,1.51h.36a1.29,1.29,0,0,1-.42-1.08A1.53,1.53,0,0,1,15.83,69a1.35,1.35,0,0,1,1.47,1.54A1.55,1.55,0,0,1,15.7,72.17Zm.08-2.69c-.47,0-.93.33-.93,1.09s.33,1.12.92,1.12.92-.35.92-1.12S16.38,69.48,15.78,69.48ZM15.44,68a.36.36,0,0,1,.35-.36.36.36,0,1,1-.35.36Z"/><path class="cls-7" d="M18.28,67.53h.6v4.64h-.6Z"/><path class="cls-7" d="M18.68,73.77l.07-.5a2,2,0,0,0,.66.11c.55,0,.88-.26.88-1.13V69.08h.6v2.61h.72v.48h-.72v0c0,.93-.34,1.66-1.53,1.66A2.87,2.87,0,0,1,18.68,73.77Z"/><path class="cls-7" d="M21.52,71.69h.23c.47,0,.68-.21.68-.92v-1.3H23v1.35c0,.57.13.91.62.91s.61-.35.61-.91V69.21h.58v1.58c0,.69.17.9.87.9H26A7.39,7.39,0,0,0,25.86,69l.59-.11a7.57,7.57,0,0,1,.23,1.87,11.64,11.64,0,0,1-.1,1.45h-1c-.63,0-1-.16-1.11-.53a.92.92,0,0,1-.93.58.85.85,0,0,1-.92-.58.83.83,0,0,1-.89.53h-.23Zm2.17-3.57a.35.35,0,0,1,.35-.35.34.34,0,0,1,.35.35.35.35,0,0,1-.7,0Zm.5-.77a.34.34,0,1,1,.34.34A.34.34,0,0,1,24.19,67.35Zm.48.77a.35.35,0,1,1,.7,0,.35.35,0,0,1-.35.35A.34.34,0,0,1,24.67,68.12Z"/><path class="cls-7" d="M29.16,71.1h-.61L27.5,67.58l.61-.09Zm-1.38,1.07v-.48h2V67.53h.61v4.64Z"/><path class="cls-7" d="M31.68,67.53h.61v4.64h-.61Z"/><path class="cls-7" d="M33.25,73.73l0-.5a5.76,5.76,0,0,0,1.05.12c.72,0,1.26-.27,1.26-1v-.16h-.67c-1.26,0-1.72-.6-1.72-1.53A1.55,1.55,0,0,1,34.87,69a4.11,4.11,0,0,1,1.32.23v3.06c0,.77-.5,1.54-1.92,1.54A6.24,6.24,0,0,1,33.25,73.73Zm2.35-4.09a2,2,0,0,0-.8-.16,1,1,0,0,0-1,1.09c0,.75.35,1.12,1.2,1.12h.58Z"/><path class="cls-7" d="M41.09,72.17c-1.67,0-2.31-.67-2.31-1.92A2.89,2.89,0,0,1,39,69.16l.64-.11a2.83,2.83,0,0,0-.25,1.13c0,1,.4,1.51,1.77,1.51h1.12V69.08h.6v3.09Zm-.91-4a.35.35,0,1,1,.7,0,.35.35,0,0,1-.35.35A.34.34,0,0,1,40.18,68.12Zm1,0a.35.35,0,0,1,.35-.35.34.34,0,0,1,.34.35.35.35,0,0,1-.34.35A.34.34,0,0,1,41.15,68.12Z"/><path class="cls-7" d="M44.08,67.53h.61v4.64h-.61Z"/><path class="cls-7" d="M44.49,73.77l.07-.5a1.94,1.94,0,0,0,.66.11c.54,0,.87-.26.87-1.13V69.08h.61V72.2c0,.93-.35,1.66-1.53,1.66A2.8,2.8,0,0,1,44.49,73.77Z"/><path class="cls-7" d="M47.9,67.53h.6v4.16h.72v.48H47.9Z"/><path class="cls-7" d="M49.13,71.69h.23c.47,0,.68-.21.68-.92v-1.3h.6v1.35c0,.57.13.91.62.91s.61-.35.61-.91V69.21h.59v1.58c0,.69.17.9.86.9h.31c0-.28,0-.67,0-.92A7,7,0,0,0,53.46,69l.59-.11a7.12,7.12,0,0,1,.23,1.87c0,.3,0,.65,0,1H55v.48H53.2c-.63,0-1-.16-1.11-.53a.92.92,0,0,1-.92.58.86.86,0,0,1-.93-.58.82.82,0,0,1-.89.53h-.22Zm2.17-3.57a.35.35,0,1,1,.7,0,.35.35,0,0,1-.35.35A.34.34,0,0,1,51.3,68.12Zm.5-.77a.33.33,0,1,1,.33.34A.33.33,0,0,1,51.8,67.35Zm.47.77a.35.35,0,1,1,.7,0,.35.35,0,0,1-.35.35A.34.34,0,0,1,52.27,68.12Z"/><path class="cls-7" d="M54.88,71.69h1V69.08h.61v2.61h.67v.48H54.88Zm.32-3.57a.35.35,0,0,1,.35-.35.35.35,0,0,1,.35.35.35.35,0,0,1-.35.35A.35.35,0,0,1,55.2,68.12Zm1,0a.36.36,0,0,1,.36-.35.34.34,0,0,1,.34.35.35.35,0,0,1-.34.35A.35.35,0,0,1,56.17,68.12Z"/><path class="cls-7" d="M57,71.69h.23c.47,0,.68-.21.68-.92v-1.3h.6v1.35c0,.57.13.91.62.91s.61-.35.61-.91V69.21h.59v1.58c0,.69.17.9.86.9h.31c0-.28,0-.67,0-.92A7,7,0,0,0,61.36,69l.59-.11a7.12,7.12,0,0,1,.23,1.87,11.64,11.64,0,0,1-.1,1.45h-1c-.63,0-1-.16-1.11-.53a.92.92,0,0,1-.92.58.86.86,0,0,1-.93-.58.82.82,0,0,1-.89.53H57Z"/><path class="cls-7" d="M64.66,71.1h-.61l-1-3.52.6-.09Zm-1.37,1.07v-.48h2V67.53h.61v4.64Z"/><path class="cls-7" d="M67.19,67.53h.6v4.64h-.6Z"/></svg>