<svg id="Layer_1" data-name="Layer 1" xmlns="http://www.w3.org/2000/svg" xmlns:xlink="http://www.w3.org/1999/xlink" viewBox="0 0 80 84"><defs><style>.cls-1{fill:#fff;}.cls-2{opacity:0.03;}.cls-3{fill:#d5b16c;}.cls-4{fill:#1d1d1b;}.cls-5{fill:url(#linear-gradient);}.cls-6{fill:#cfa868;}</style><linearGradient id="linear-gradient" x1="40.12" y1="73.42" x2="40.12" y2="38.11" gradientUnits="userSpaceOnUse"><stop offset="0" stop-color="#fff"/><stop offset="1" stop-color="#fff" stop-opacity="0"/></linearGradient></defs><rect class="cls-1" width="80" height="84"/><g class="cls-2"><path class="cls-3" d="M23.47,20.23a1,1,0,0,0,.1.17.61.61,0,0,0,.68.22L26.16,20,36.77,16.5l1.37-.45a.61.61,0,0,0,.39-.78l-.7-2.13-.17-.53a.61.61,0,0,0-.72-.41h0a.61.61,0,0,1-.77-.34c-.07-.15-.14-.31-.22-.45C34.84,9.34,33,8.79,30.74,8.59l-.35-.06a5,5,0,0,0-4.78,1.81c-1.75,1.61-2.79,3.3-2.21,5.72a.63.63,0,0,1-.41.73.59.59,0,0,0-.39.77l.87,2.67Z"/><path class="cls-3" d="M49.25,37.32l-.66,2.3a1,1,0,0,0,.66,1.17l1.34.39-.83,3A1.75,1.75,0,0,0,51,46.31l3.61,1a1.77,1.77,0,0,0,2.19-1.22l4.06-14.23h0l2.72-9.57a1.77,1.77,0,0,0-1.22-2.19l-3.61-1a1.77,1.77,0,0,0-2.19,1.22L56,22.16l-1.35-.38a.94.94,0,0,0-1.17.65l-2.69,9.46-1.54,5.43Z"/><path class="cls-3" d="M60.89,31.7l-.06.19a3.12,3.12,0,0,1,.59.23l-.53-.42Z"/><path class="cls-3" d="M61.42,32.12l3.37,2.67a15.34,15.34,0,0,0-3.37-2.67Z"/><path class="cls-3" d="M24.43,20.89a7,7,0,0,0,13.35-2.72,7.22,7.22,0,0,0-.17-1.55L24.43,20.89Z"/><path class="cls-4" d="M14.26,48.64a3.87,3.87,0,0,0,1.32,1.5h0a3.55,3.55,0,0,0,2,.62,3.31,3.31,0,0,0,.83-.1h0a3.53,3.53,0,0,0,1.3-.61,3.63,3.63,0,0,0,1-1.14h0l.78-1.41.22,5.18h0A2.89,2.89,0,0,0,22,54a3.31,3.31,0,0,0,.25.3L15.75,66.22l0,0a4,4,0,0,0-.41,1.81,4.19,4.19,0,0,0,.75,2.4,4.54,4.54,0,0,0,2,1.63l.27.12a4.92,4.92,0,0,0,4.35-.3,4.44,4.44,0,0,0,1-.81,4.11,4.11,0,0,0,.73-1h0l6.27-11.43,3.44,11.78v0a4.23,4.23,0,0,0,.6,1.11,3.92,3.92,0,0,0,1.42,1.14A4,4,0,0,0,38,73.1a4.53,4.53,0,0,0,1.68-.33l.25-.11A4.46,4.46,0,0,0,41.08,72a4.57,4.57,0,0,0,1.21-1.56,4.33,4.33,0,0,0,.45-1.91,4.16,4.16,0,0,0-.22-1.29h0l-4.1-14.06a4.13,4.13,0,0,0,.07-.49V44.48l9.06-4.93a1.86,1.86,0,0,0,0,.33,2,2,0,0,0,.39,1.19A2.12,2.12,0,0,0,49,41.8h0l.35.09-.56,2a2.92,2.92,0,0,0-.11.77,2.83,2.83,0,0,0,2,2.71h0l3.61,1h0a2.87,2.87,0,0,0,.77.11,2.78,2.78,0,0,0,1.68-.56,2.74,2.74,0,0,0,1-1.49h0l3.75-13.15a6.47,6.47,0,0,1,.85.49,6.09,6.09,0,0,1,1.45,1.46h0l.1.14h0a5.51,5.51,0,0,1,.93,3.09,5.82,5.82,0,0,1-1,3.34h0L63,42.93a1,1,0,0,0,1.71,1.19l.8-1.14h0a8,8,0,0,0,1.43-4.53,7.61,7.61,0,0,0-1.28-4.24h0c0-.07-.09-.14-.14-.21a8.39,8.39,0,0,0-1.95-2,7.93,7.93,0,0,0-1.49-.8l2.46-8.65a3,3,0,0,0,.11-.77,2.76,2.76,0,0,0-.56-1.68,3,3,0,0,0-.65-.63,3,3,0,0,0-.84-.4h0L59,18.1h0a2.52,2.52,0,0,0-.77-.11,2.8,2.8,0,0,0-1.68.56,2.52,2.52,0,0,0-.62.64,2.6,2.6,0,0,0-.4.84l-.24.84-.34-.1h0a2.08,2.08,0,0,0-.55-.07,2,2,0,0,0-1.19.39,1.92,1.92,0,0,0-.44.46,1.83,1.83,0,0,0-.28.6l-2.2,7.73L38.69,35.69l0,0-.74.42-.06-3.71a6.37,6.37,0,0,0-.51-2.4,5.89,5.89,0,0,0-1.42-2,6.15,6.15,0,0,0-2.1-1.29A8.23,8.23,0,0,0,31,26.25H29.36a9.18,9.18,0,0,0-2.81.39,7.56,7.56,0,0,0-3.69,2.48,8.47,8.47,0,0,0-1.23,2.13,24.2,24.2,0,0,1-1.49,3.08l-3.6,6.45-2.24,4h0a3.91,3.91,0,0,0-.5,1.93,4.12,4.12,0,0,0,.46,1.89ZM54.46,22.8l1.25.36A1,1,0,0,0,57,22.44l.52-1.84a.88.88,0,0,1,.1-.22.73.73,0,0,1,.27-.22.63.63,0,0,1,.33-.09.69.69,0,0,1,.2,0h0l3.61,1h0a.64.64,0,0,1,.22.1.71.71,0,0,1,.23.26.77.77,0,0,1,.08.34.75.75,0,0,1,0,.2L59.82,31.6a.19.19,0,0,0,0,.08l-4,14.15h0a.68.68,0,0,1-.1.21.71.71,0,0,1-.26.23.84.84,0,0,1-.54.06h0l-3.61-1h0a.88.88,0,0,1-.22-.1,1,1,0,0,1-.23-.26.81.81,0,0,1-.08-.34.69.69,0,0,1,0-.2l.83-2.95a1,1,0,0,0-.71-1.29l-1.26-.35.63-2.21,1.54-5.44,2.67-9.37ZM39.65,37.55l9.86-4.95-1.19,4.17L37,43h0l-.52.29a.28.28,0,0,1-.15,0l-.11,0a.21.21,0,0,1-.1-.06h0l-3.29-3-2.47-2.28h0l-.4-.37L29,36.67a1.69,1.69,0,0,1-.38-.52,1.47,1.47,0,0,1-.12-.58,1.43,1.43,0,0,1,.12-.58,1.73,1.73,0,0,1,.38-.53,1.88,1.88,0,0,1,.67-.39h0a2.13,2.13,0,0,1,1.43,0h0l.25.12h0a2,2,0,0,1,.29.22h0l4.54,4.19h0a.92.92,0,0,0,.48.22l.12,0h.09a1,1,0,0,0,.46-.12h0l2.25-1.24ZM16.12,45.83h0l2.24-4L22,35.36A27.63,27.63,0,0,0,23.57,32a6.43,6.43,0,0,1,.79-1.43A5.24,5.24,0,0,1,26.28,29a6,6,0,0,1,1.37-.47,7.42,7.42,0,0,1,1.71-.18H31a6.09,6.09,0,0,1,2.12.33,4.18,4.18,0,0,1,1.39.85,3.79,3.79,0,0,1,.92,1.32,4.24,4.24,0,0,1,.35,1.62l0,3-2.75-2.53h0a4.86,4.86,0,0,0-.64-.48h0a3.07,3.07,0,0,0-.51-.26h0a4.12,4.12,0,0,0-1.58-.31A4,4,0,0,0,29,32.1h0a3.84,3.84,0,0,0-1.41.83,3.73,3.73,0,0,0-.88,1.22,3.68,3.68,0,0,0-.29,1.42A3.63,3.63,0,0,0,26.71,37a3.87,3.87,0,0,0,.88,1.23l.91.84.41.38h0l2.46,2.27,3.29,3h0a2.45,2.45,0,0,0,1.63.63s.08,0,.13,0v7.31a1.09,1.09,0,0,1,0,.26,1,1,0,0,0,0,.62l4.16,14.25v0a1.91,1.91,0,0,1,.11.66,2.39,2.39,0,0,1-.41,1.32,2.58,2.58,0,0,1-.49.55,2.61,2.61,0,0,1-.64.39l-.25.1A2.39,2.39,0,0,1,38,71a1.92,1.92,0,0,1-1.11-.34,1.69,1.69,0,0,1-.42-.38,2,2,0,0,1-.27-.52L32.05,55.63a1.05,1.05,0,0,0-.89-.75,1.07,1.07,0,0,0-1,.54L22.65,69.06l0,0a2.26,2.26,0,0,1-.4.57,2.54,2.54,0,0,1-.89.6,2.92,2.92,0,0,1-1.1.22,2.83,2.83,0,0,1-1.07-.21l-.28-.11a2.44,2.44,0,0,1-1.11-.89,2.11,2.11,0,0,1-.39-1.22,2,2,0,0,1,.21-.89l6.85-12.49a1,1,0,0,0-.28-1.32,1.1,1.1,0,0,1-.28-.34.76.76,0,0,1-.1-.39v0l-.37-8.87a1,1,0,0,0-2-.46l-2.58,4.62h0a1.57,1.57,0,0,1-.42.49,1.5,1.5,0,0,1-.54.26h0a1.86,1.86,0,0,1-.34,0,1.49,1.49,0,0,1-.85-.27h0a1.83,1.83,0,0,1-.63-.72,2.16,2.16,0,0,1-.22-.94,1.82,1.82,0,0,1,.23-.92Z"/><polygon class="cls-4" points="36.83 10.93 36.84 10.94 36.84 10.94 36.83 10.93 36.83 10.93 36.83 10.93"/><path class="cls-4" d="M39.3,16.43a1.65,1.65,0,0,0,.31-1,1.52,1.52,0,0,0-.09-.51l-.7-2.14h0l-.17-.52a1.71,1.71,0,0,0-.59-.82,2,2,0,0,0-.45-.24,1.55,1.55,0,0,0-.53-.09l-.14,0c0-.08-.07-.15-.1-.22a6,6,0,0,0-1.15-1.56,5,5,0,0,0-1.08-.82,6.66,6.66,0,0,0-1.83-.7,12.51,12.51,0,0,0-1.85-.29h0l-.35-.07h0a6.32,6.32,0,0,0-1.06-.09,6.07,6.07,0,0,0-1.8.31l-.18,0a.61.61,0,0,0-.16.09c-.16.06-.32.09-.47.16a6.2,6.2,0,0,0-2,1.56h0a13.44,13.44,0,0,0-1.06,1.08,7.54,7.54,0,0,0-1.2,1.87,5.75,5.75,0,0,0-.46,2.24A6.46,6.46,0,0,0,22.34,16a2,2,0,0,0-.25.14,1.92,1.92,0,0,0-.39.51h0a1.68,1.68,0,0,0-.18.74,1.58,1.58,0,0,0,.09.52h0l.87,2.66a1.82,1.82,0,0,0,.25.48h0a1.71,1.71,0,0,0,.93.57,7.85,7.85,0,0,0,7.17,4.56,7.94,7.94,0,0,0,6.63-3.52,8,8,0,0,0,1.36-4.47,7.24,7.24,0,0,0-.14-1.24,1.71,1.71,0,0,0,.62-.5Zm-15.16.74a1.64,1.64,0,0,0,.31-1,1.72,1.72,0,0,0,0-.39h0a4.69,4.69,0,0,1-.14-1.06,3.32,3.32,0,0,1,.14-1,4.21,4.21,0,0,1,.67-1.34,8.94,8.94,0,0,1,1.24-1.36s0,0,0,0l.1-.07h0a3.93,3.93,0,0,1,.85-.78l1.44,4.09a1,1,0,1,0,2-.68L29.25,9.53a2.3,2.3,0,0,1,.26,0,4,4,0,0,1,.69.06h0l.36.06h.09a14.64,14.64,0,0,1,1.48.21,7.13,7.13,0,0,1,.92.28,3.74,3.74,0,0,1,1.09.66A3.85,3.85,0,0,1,35,11.89h0l.18.38h0a1.61,1.61,0,0,0,.62.74,1.59,1.59,0,0,0,.9.27h.09l.06.18h0l.57,1.73-1,.32h0L25.83,19l-1.5.49-.63-1.91a1.57,1.57,0,0,0,.44-.41Zm-.55.07Zm12.68,3.23a5.91,5.91,0,0,1-5.44,3.61,5.6,5.6,0,0,1-5-2.88l.65-.22,10.2-3.35c0,.18.06.35.06.54a5.87,5.87,0,0,1-.47,2.3Z"/><polygon class="cls-4" points="65.51 34 65.52 34 65.52 34 65.51 34 65.51 34 65.51 34"/><path class="cls-4" d="M67,70.06,65.67,61a1.42,1.42,0,0,0,0-.2,1,1,0,0,0-.14-.5l-1.49-10a1,1,0,0,0-1.18-.88A1.06,1.06,0,0,0,62,50.55l1.36,9.19H57.92l3.61-9.13a1.05,1.05,0,0,0-.59-1.36,1,1,0,0,0-1.35.59l-4,10.22a1.05,1.05,0,0,0-.3.73h0l-3.46,8.75a1,1,0,0,0,.59,1.35,1,1,0,0,0,1.35-.58l3.36-8.49h6.6l1.25,8.53a1,1,0,0,0,2.07-.3Z"/></g><rect class="cls-5" x="11.82" y="38.11" width="56.6" height="35.31"/><path class="cls-6" d="M20.64,70.25a2.89,2.89,0,0,1,.22-1.09l.64-.11a2.82,2.82,0,0,0-.24,1.13c0,1,.39,1.51,1.76,1.51h1.12V69.08h.61v2.61h.72v.48H23C21.29,72.17,20.64,71.5,20.64,70.25ZM22,68.12a.35.35,0,0,1,.35-.35.34.34,0,0,1,.35.35.35.35,0,1,1-.7,0Zm.5-.77a.34.34,0,1,1,.34.34A.34.34,0,0,1,22.54,67.35Zm.48.77a.35.35,0,0,1,.35-.35.34.34,0,0,1,.34.35.35.35,0,0,1-.34.35A.34.34,0,0,1,23,68.12Z"/><path class="cls-6" d="M25.38,71.69h1.33V69.08h.6v2.61H28v.48H25.38Zm.56,1.81a.35.35,0,0,1-.35-.35.35.35,0,0,1,.35-.35.35.35,0,0,1,.35.35A.35.35,0,0,1,25.94,73.5Zm1,0a.35.35,0,0,1-.36-.35.36.36,0,0,1,.36-.35.34.34,0,0,1,.34.35A.35.35,0,0,1,26.92,73.5Z"/><path class="cls-6" d="M28,71.69h1V69.08h.6v3.09H28Zm.32-3.57a.35.35,0,0,1,.35-.35.34.34,0,0,1,.34.35.35.35,0,0,1-.34.35A.34.34,0,0,1,28.27,68.12Zm.5-.77a.33.33,0,1,1,.33.34A.33.33,0,0,1,28.77,67.35Zm.47.77a.35.35,0,1,1,.7,0,.35.35,0,0,1-.35.35A.34.34,0,0,1,29.24,68.12Z"/><path class="cls-6" d="M30.16,66.78a2.69,2.69,0,0,1,.46,0,.39.39,0,0,1-.17-.32c0-.33.22-.64.82-.64a2.55,2.55,0,0,1,.36,0l-.06.36a1.19,1.19,0,0,0-.32,0c-.24,0-.36.11-.36.27s.14.31.51.31h.35v.34H30.16Zm.56.81h.6v4.1H32v.48H30.72Z"/><path class="cls-6" d="M32,71.69h1V69.08h.6v2.61h.68v.48H32Zm.32-3.57a.35.35,0,1,1,.7,0,.35.35,0,0,1-.35.35A.34.34,0,0,1,32.27,68.12Zm1,0a.35.35,0,0,1,.35-.35.34.34,0,0,1,.34.35.35.35,0,0,1-.34.35A.34.34,0,0,1,33.24,68.12Z"/><path class="cls-6" d="M34.09,71.69H35V67.53h.61v4.64H34.09Z"/><path class="cls-6" d="M36.87,67.53h.61v4.64h-.61Z"/><path class="cls-6" d="M38.44,73.73l0-.5a5.76,5.76,0,0,0,1.05.12c.72,0,1.26-.27,1.26-1v-.16h-.67c-1.26,0-1.72-.6-1.72-1.53A1.55,1.55,0,0,1,40.06,69a4.11,4.11,0,0,1,1.32.23v3.06c0,.77-.5,1.54-1.92,1.54A6.24,6.24,0,0,1,38.44,73.73Zm2.35-4.09a2,2,0,0,0-.8-.16,1,1,0,0,0-1,1.09c0,.75.35,1.12,1.2,1.12h.58Z"/><path class="cls-6" d="M43.9,71.69H46a2.06,2.06,0,0,0-1.65-2.23l.15-.51a2.6,2.6,0,0,1,2.1,2.74h.51v.48H43.9ZM44.5,68a.36.36,0,1,1,.36.35A.35.35,0,0,1,44.5,68Z"/><path class="cls-6" d="M47,71.69h1.32V69.08H49v2.61h.72v.48H47Zm.56,1.81a.34.34,0,0,1-.35-.35.35.35,0,0,1,.7,0A.35.35,0,0,1,47.59,73.5Zm1,0a.34.34,0,0,1-.35-.35.35.35,0,0,1,.35-.35.34.34,0,0,1,.34.35A.35.35,0,0,1,48.56,73.5Z"/><path class="cls-6" d="M49.59,71.69H50l.47,0a1.29,1.29,0,0,1-.44-1.1A1.54,1.54,0,0,1,51.6,69a1.35,1.35,0,0,1,1.46,1.53,1.45,1.45,0,0,1-.51,1.18l.57,0h.46v.48h-4Zm2.86-1.12c0-.69-.3-1.09-.91-1.09s-.92.33-.92,1.08.33,1.13.92,1.13S52.45,71.34,52.45,70.57ZM51.2,68a.36.36,0,1,1,.36.36A.36.36,0,0,1,51.2,68Z"/><path class="cls-6" d="M53.48,71.69h1V69.08h.61v2.61h.73v.48h-2.3ZM54.39,68a.36.36,0,0,1,.35-.36.36.36,0,1,1,0,.71A.35.35,0,0,1,54.39,68Z"/><path class="cls-6" d="M55.68,71.69h1V69.08h.61v2.61h.67v.48H55.68ZM56,68.12a.35.35,0,1,1,.7,0,.35.35,0,0,1-.35.35A.34.34,0,0,1,56,68.12Zm1,0a.35.35,0,0,1,.35-.35.35.35,0,0,1,.35.35.35.35,0,0,1-.35.35A.35.35,0,0,1,57,68.12Z"/><path class="cls-6" d="M57.83,71.69h.92V67.53h.6v4.64H57.83Z"/><path class="cls-6" d="M60.6,67.53h.61v4.64H60.6Z"/><path class="cls-3" d="M29.57,27.44l.06.11a.4.4,0,0,0,.44.14l1.22-.4,6.79-2.23.88-.29a.39.39,0,0,0,.25-.5l-.45-1.37-.11-.33a.39.39,0,0,0-.46-.27h0a.39.39,0,0,1-.49-.21,2.75,2.75,0,0,0-.14-.3c-.68-1.33-1.86-1.68-3.31-1.8L34,20a3.17,3.17,0,0,0-3.06,1.15,3.56,3.56,0,0,0-1.42,3.67.38.38,0,0,1-.26.46.41.41,0,0,0-.23.2.44.44,0,0,0,0,.3l.56,1.7Z"/><path class="cls-3" d="M46.07,38.38l-.42,1.47a.6.6,0,0,0,.42.75l.86.25-.54,1.88a1.13,1.13,0,0,0,.78,1.4l2.31.66a1.14,1.14,0,0,0,1.4-.78l2.6-9.11h0l1.74-6.13a1.14,1.14,0,0,0-.78-1.4l-2.31-.65a1.14,1.14,0,0,0-1.4.78l-.34,1.18-.86-.25a.61.61,0,0,0-.75.42l-1.72,6-1,3.48Z"/><path class="cls-3" d="M53.51,34.78l0,.12a2.7,2.7,0,0,1,.38.15l-.35-.27Z"/><path class="cls-3" d="M53.86,35.05,56,36.76a10,10,0,0,0-2.15-1.71Z"/><path class="cls-3" d="M30.19,27.87a4.45,4.45,0,0,0,8.54-1.74,4.64,4.64,0,0,0-.11-1l-8.43,2.74Z"/><path class="cls-4" d="M23.67,45.62a2.52,2.52,0,0,0,.85,1h0a2.28,2.28,0,0,0,1.29.4,2.39,2.39,0,0,0,.53-.06h0a2.2,2.2,0,0,0,.83-.4,2.35,2.35,0,0,0,.63-.73h0l.51-.9.13,3.32h0a1.78,1.78,0,0,0,.2.83,1.56,1.56,0,0,0,.16.2l-4.18,7.63,0,0a2.52,2.52,0,0,0-.26,1.16,2.69,2.69,0,0,0,.48,1.53,3,3,0,0,0,1.3,1l.18.07a3.21,3.21,0,0,0,2.78-.19,3,3,0,0,0,.66-.52,2.65,2.65,0,0,0,.46-.67h0l4-7.32,2.2,7.54v0a2.57,2.57,0,0,0,2.42,1.69,2.73,2.73,0,0,0,1.07-.22l.16-.07a2.82,2.82,0,0,0,.75-.45,3.15,3.15,0,0,0,.78-1,2.83,2.83,0,0,0,.28-1.22,2.63,2.63,0,0,0-.14-.83h0l-2.63-9a1.54,1.54,0,0,0,0-.31V43L45,39.81A.76.76,0,0,0,45,40a1.26,1.26,0,0,0,.54,1,1.33,1.33,0,0,0,.38.18h0l.22.06-.35,1.25a1.66,1.66,0,0,0-.07.49A1.8,1.8,0,0,0,46,44.12a1.76,1.76,0,0,0,1,.65h0l2.31.66h0a1.66,1.66,0,0,0,.49.07,1.82,1.82,0,0,0,1.08-.36,1.79,1.79,0,0,0,.65-1h0l2.4-8.41a4.74,4.74,0,0,1,.54.31,4,4,0,0,1,.93.94h0l.07.1h0a3.5,3.5,0,0,1,.59,2,3.79,3.79,0,0,1-.67,2.14h0l-.51.73a.66.66,0,1,0,1.09.76l.51-.73h0a5,5,0,0,0,.92-2.9,4.87,4.87,0,0,0-.82-2.71h0l-.09-.14A5.25,5.25,0,0,0,55.23,35a5.17,5.17,0,0,0-.95-.52L55.85,29a1.73,1.73,0,0,0,.07-.5,1.77,1.77,0,0,0-.36-1.07,1.73,1.73,0,0,0-.41-.4,1.93,1.93,0,0,0-.54-.26h0l-2.31-.65h0a1.66,1.66,0,0,0-.49-.07,1.86,1.86,0,0,0-1.08.35,2,2,0,0,0-.4.42,1.67,1.67,0,0,0-.25.54l-.16.53-.21-.06h0a1.48,1.48,0,0,0-.35-.05,1.26,1.26,0,0,0-.76.25,1.18,1.18,0,0,0-.29.3,1.21,1.21,0,0,0-.18.38l-1.41,4.95-7.41,3.72h0l-.48.26,0-2.37a4.19,4.19,0,0,0-.32-1.53,4,4,0,0,0-.91-1.3,4,4,0,0,0-1.35-.82,5.29,5.29,0,0,0-1.81-.29h-1a6.31,6.31,0,0,0-1.8.25,5.05,5.05,0,0,0-1.11.49,4.76,4.76,0,0,0-1.25,1.1,4.89,4.89,0,0,0-.78,1.36,17,17,0,0,1-1,2l-2.3,4.13L23.7,43.17h0a2.52,2.52,0,0,0-.32,1.24,2.66,2.66,0,0,0,.29,1.21ZM49.4,29.09l.8.23a.68.68,0,0,0,.83-.46l.33-1.18a.37.37,0,0,1,.07-.14.49.49,0,0,1,.38-.2l.13,0h0l2.31.66h0a.35.35,0,0,1,.14.06.39.39,0,0,1,.14.17.42.42,0,0,1,.06.21.51.51,0,0,1,0,.13l-1.74,6.13s0,0,0,.05l-2.58,9.06h0a.91.91,0,0,1-.07.14.49.49,0,0,1-.38.2l-.13,0h0l-2.31-.66h0a.59.59,0,0,1-.14-.06.55.55,0,0,1-.14-.17A.43.43,0,0,1,47,43a.5.5,0,0,1,0-.12L47.57,41a.68.68,0,0,0-.46-.83L46.3,40l.41-1.42,1-3.48,1.71-6Zm-9.48,9.43,6.31-3.16L45.47,38,38.2,42h0l-.33.19-.1,0H37.7l-.06,0h0L35.53,40.2,34,38.74h0l-.26-.24L33.11,38a.93.93,0,0,1-.24-.33,1,1,0,0,1-.08-.37.91.91,0,0,1,.08-.37,1,1,0,0,1,.24-.34,1.16,1.16,0,0,1,.43-.25h0a1.27,1.27,0,0,1,.91,0h0l.16.08h0a1.15,1.15,0,0,1,.19.14h0l2.9,2.68h0a.57.57,0,0,0,.31.15h.13a.55.55,0,0,0,.29-.08h0l1.43-.8ZM24.86,43.83h0l1.44-2.58,2.31-4.13a19,19,0,0,0,1-2.13,3.68,3.68,0,0,1,.5-.91,3.28,3.28,0,0,1,1.23-1,4.24,4.24,0,0,1,.87-.31,5.25,5.25,0,0,1,1.1-.11h1a4,4,0,0,1,1.36.21,2.64,2.64,0,0,1,.89.55,2.5,2.5,0,0,1,.59.84,2.81,2.81,0,0,1,.22,1l0,1.92-1.76-1.62h0a2.45,2.45,0,0,0-.41-.31h0a2.59,2.59,0,0,0-.33-.17h0a2.65,2.65,0,0,0-1-.19,2.7,2.7,0,0,0-.85.13h0a2.38,2.38,0,0,0-.9.54,2.13,2.13,0,0,0-.56.78,2.22,2.22,0,0,0-.19.91,2.17,2.17,0,0,0,.19.9,2.25,2.25,0,0,0,.56.79l.58.53.26.25h0l1.58,1.45,2.1,1.94h0a1.47,1.47,0,0,0,.49.3,1.5,1.5,0,0,0,.55.11l.09,0v4.68a.51.51,0,0,1,0,.17.74.74,0,0,0,0,.39l2.66,9.13,0,0a1.42,1.42,0,0,1,.06.42,1.46,1.46,0,0,1-.26.84,1.59,1.59,0,0,1-.72.6l-.16.07a1.43,1.43,0,0,1-.56.11,1.32,1.32,0,0,1-.72-.21,1,1,0,0,1-.26-.25,1.29,1.29,0,0,1-.18-.33l-2.64-9.06A.67.67,0,0,0,33.83,50l-4.78,8.73,0,0a1.29,1.29,0,0,1-.25.36,1.61,1.61,0,0,1-.57.39,1.87,1.87,0,0,1-.71.14,1.79,1.79,0,0,1-.68-.13l-.18-.08a1.62,1.62,0,0,1-.71-.56,1.34,1.34,0,0,1-.25-.78,1.36,1.36,0,0,1,.13-.58l4.38-8a.66.66,0,0,0-.17-.85.63.63,0,0,1-.18-.22.54.54,0,0,1-.06-.25v0l-.24-5.67a.66.66,0,0,0-.51-.62.67.67,0,0,0-.74.32l-1.65,3h0a1.09,1.09,0,0,1-.27.32.93.93,0,0,1-.35.16h0a.76.76,0,0,1-.21,0,1.09,1.09,0,0,1-.55-.18h0a1.24,1.24,0,0,1-.4-.45,1.43,1.43,0,0,1-.14-.61,1.24,1.24,0,0,1,.14-.58Z"/><polygon class="cls-4" points="38.12 21.49 38.12 21.5 38.12 21.5 38.12 21.49 38.12 21.49 38.12 21.49"/><path class="cls-4" d="M39.7,25a1.12,1.12,0,0,0,.2-.62,1,1,0,0,0-.06-.33l-.45-1.36h0l-.11-.33a1,1,0,0,0-.38-.53,1.25,1.25,0,0,0-.28-.15,1.27,1.27,0,0,0-.34-.05h-.09a.61.61,0,0,0-.07-.14,3.45,3.45,0,0,0-.73-1A3.38,3.38,0,0,0,36.7,20a4.52,4.52,0,0,0-1.17-.46,9,9,0,0,0-1.19-.18h0l-.23,0h0a3.57,3.57,0,0,0-1.83.14h-.12l-.1.07a1.66,1.66,0,0,0-.29.1,3.62,3.62,0,0,0-1.27,1h0a8.84,8.84,0,0,0-.68.69,4.59,4.59,0,0,0-.76,1.2,3.59,3.59,0,0,0-.3,1.43,4.17,4.17,0,0,0,.1.78c-.06,0-.12.05-.16.09a1.11,1.11,0,0,0-.25.33h0a1.06,1.06,0,0,0-.12.47.92.92,0,0,0,.06.33h0l.56,1.71a1.08,1.08,0,0,0,.16.3h0a1.07,1.07,0,0,0,.59.36,5.09,5.09,0,0,0,9.7-2.19,4.17,4.17,0,0,0-.09-.8,1.16,1.16,0,0,0,.4-.32Zm-9.7.47a1,1,0,0,0,.2-.61,1.07,1.07,0,0,0,0-.25h0a2.89,2.89,0,0,1-.09-.68,2.11,2.11,0,0,1,.09-.62,2.53,2.53,0,0,1,.43-.85,5.6,5.6,0,0,1,.79-.87s0,0,0,0,.05,0,.06,0h0A2.6,2.6,0,0,1,32,21l.92,2.62a.67.67,0,0,0,.85.41.67.67,0,0,0,.41-.85l-.92-2.62.17,0a3.42,3.42,0,0,1,.44,0h0l.22,0h.06a6.36,6.36,0,0,1,1,.14,3.39,3.39,0,0,1,.59.17,2.55,2.55,0,0,1,.7.42,2.46,2.46,0,0,1,.54.72h0l.12.25h0a1.11,1.11,0,0,0,.4.48A1.06,1.06,0,0,0,38,23h.06l0,.12h0l.36,1.11-.62.2h0l-6.79,2.23-1,.32-.4-1.22a1,1,0,0,0,.28-.27Zm-.35.05Zm8.11,2.07a3.8,3.8,0,0,1-3.48,2.31,3.81,3.81,0,0,1-2.11-.65,3.69,3.69,0,0,1-1.09-1.2l.42-.14L38,25.78a3.39,3.39,0,0,1,0,.35,3.82,3.82,0,0,1-.3,1.47Z"/><polygon class="cls-4" points="56.47 36.25 56.48 36.26 56.48 36.26 56.47 36.25 56.47 36.25 56.47 36.25"/><path class="cls-4" d="M57.43,59.33l-.86-5.81a.5.5,0,0,0,0-.13.73.73,0,0,0-.09-.32l-.95-6.42a.65.65,0,0,0-.76-.56.66.66,0,0,0-.56.75l.87,5.89h-3.5l2.31-5.85a.67.67,0,0,0-.37-.87.68.68,0,0,0-.87.38L50.1,52.93a.64.64,0,0,0-.19.46v0L47.7,59a.67.67,0,0,0,.37.87.68.68,0,0,0,.87-.38l2.14-5.43H55.3l.81,5.46a.67.67,0,0,0,.76.57.68.68,0,0,0,.56-.76Z"/></svg>