<svg id="Layer_1" data-name="Layer 1" xmlns="http://www.w3.org/2000/svg" xmlns:xlink="http://www.w3.org/1999/xlink" viewBox="0 0 80 84"><defs><style>.cls-1{fill:#fff;}.cls-2{opacity:0.03;}.cls-3{fill:#d5b16c;}.cls-4{fill:#1d1d1b;}.cls-5{fill:url(#linear-gradient);}.cls-6{fill:#cfa868;}</style><linearGradient id="linear-gradient" x1="40.12" y1="73.42" x2="40.12" y2="38.11" gradientUnits="userSpaceOnUse"><stop offset="0" stop-color="#fff"/><stop offset="1" stop-color="#fff" stop-opacity="0"/></linearGradient></defs><rect class="cls-1" width="80" height="84"/><g class="cls-2"><path class="cls-3" d="M71,16.52H48.38L47.7,50l-.44,21.32h9.31V64a4.88,4.88,0,1,1,9.75,0v7.36H71a1.21,1.21,0,0,0,1.21-1.2V17.73A1.21,1.21,0,0,0,71,16.52Z"/><path class="cls-4" d="M22.25,25.59v2.13s0,0,.07,0h4.92s.07,0,.07,0V25.59s0,0-.07,0H22.32s-.07,0-.07,0Z"/><path class="cls-4" d="M43.63,27.72V25.59s0,0-.06,0H38.64s-.06,0-.06,0v2.13s0,0,.06,0h4.93s.06,0,.06,0Z"/><path class="cls-4" d="M35.47,27.72V25.59s0,0-.06,0H30.48s-.06,0-.06,0v2.13s0,0,.06,0h4.93s.06,0,.06,0Z"/><path class="cls-4" d="M14.09,25.59v2.13s0,0,.07,0h4.92s.06,0,.06,0V25.59s0,0-.06,0H14.16s-.07,0-.07,0Z"/><path class="cls-4" d="M66,32.33a1.7,1.7,0,0,0-.86-.23H56.36a1.68,1.68,0,0,0-1.11.41,1.61,1.61,0,0,0-.38.5,1.64,1.64,0,0,0-.15.67v7.75a1.64,1.64,0,0,0,.15.67,1.73,1.73,0,0,0,.63.68,1.7,1.7,0,0,0,.86.23h8.81a1.68,1.68,0,0,0,1.11-.41,1.74,1.74,0,0,0,.38-.5,1.64,1.64,0,0,0,.15-.67V33.68A1.55,1.55,0,0,0,66,32.33Zm-9,2h7.55v6.38H57V34.36Z"/><path class="cls-4" d="M66,19.86a1.7,1.7,0,0,0-.86-.23H56.36a1.68,1.68,0,0,0-1.11.41,1.74,1.74,0,0,0-.38.5,1.64,1.64,0,0,0-.15.67V29a1.49,1.49,0,0,0,.16.66,1.58,1.58,0,0,0,.62.68,1.7,1.7,0,0,0,.86.23h8.81a1.63,1.63,0,0,0,1.1-.41,1.61,1.61,0,0,0,.39-.5,1.63,1.63,0,0,0,.15-.66V21.21A1.55,1.55,0,0,0,66,19.86Zm-9,2h7.55v6.39H57V21.89Z"/><path class="cls-4" d="M66,44.8a1.7,1.7,0,0,0-.86-.23H56.36a1.68,1.68,0,0,0-1.11.41,1.45,1.45,0,0,0-.37.5,1.5,1.5,0,0,0-.16.67v7.76a1.63,1.63,0,0,0,.15.66,1.66,1.66,0,0,0,.63.68,1.7,1.7,0,0,0,.86.23h8.81a1.68,1.68,0,0,0,1.11-.41,1.74,1.74,0,0,0,.38-.5,1.63,1.63,0,0,0,.15-.66V46.15a1.64,1.64,0,0,0-.15-.67A1.6,1.6,0,0,0,66,44.8Zm-9,2h7.55v6.39H57V46.83Z"/><path class="cls-4" d="M71,15.39H48.83V10.11a2.45,2.45,0,0,0-.2-1,2.53,2.53,0,0,0-.91-1.08,2.44,2.44,0,0,0-1.35-.41,2.48,2.48,0,0,0-.88.16l-12,4.57a1.13,1.13,0,1,0,.8,2.11l12-4.55h0a.11.11,0,0,1,.07,0,.18.18,0,0,1,.13.06s0,0,0,.06,0,0,0,.08V34.27H11.16V23.4a.19.19,0,0,1,.13-.18h0l13.93-5.29a1.13,1.13,0,0,0-.81-2.12L10.49,21.1h0A2.46,2.46,0,0,0,8.9,23.4V34.72a1.28,1.28,0,0,0,.06.34,1.28,1.28,0,0,0-.06.34V70a2.46,2.46,0,0,0,2.46,2.46H56.57a1.14,1.14,0,0,0,.8-.33,1.16,1.16,0,0,0,.33-.81V64a3.77,3.77,0,0,1,1.1-2.65,3.73,3.73,0,0,1,5.29,0A3.77,3.77,0,0,1,65.19,64v7.36a1.16,1.16,0,0,0,.33.81,1.14,1.14,0,0,0,.8.33H71a2.34,2.34,0,0,0,2.34-2.34V17.73A2.34,2.34,0,0,0,71,15.39ZM46.56,70.22H43.71V46.88a2,2,0,0,0-.6-1.45,2.06,2.06,0,0,0-1.45-.6H16.07A2,2,0,0,0,14,46.88V70.22H11.36a.18.18,0,0,1-.14-.06.16.16,0,0,1-.06-.13V36.53h35.4V70.22ZM16.28,47.1H41.45V54H16.28V47.1ZM41.45,59.9H16.28V56.28H41.45V59.9ZM16.28,62.17H41.45V65.8H16.28V62.17Zm0,5.9H41.45v2.15H16.28V68.07Zm54.84,2.08s0,0,0,0,0,0,0,0H67.45V64a6,6,0,1,0-12,0v6.23H48.83V35.4a1.28,1.28,0,0,0-.07-.34,1.28,1.28,0,0,0,.07-.34V17.66H71a.06.06,0,0,1,0,0,.13.13,0,0,1,0,.05V70.15Z"/></g><rect class="cls-5" x="0.24" y="38.11" width="79.76" height="35.31"/><path class="cls-6" d="M19.28,72.17c-1.66,0-2.31-.67-2.31-1.92a2.89,2.89,0,0,1,.22-1.09l.64-.11a2.83,2.83,0,0,0-.25,1.13c0,1,.4,1.51,1.77,1.51h.56V69.13a6.22,6.22,0,0,1,1.2-.13c1.1,0,1.47.54,1.47,1.45v1.24h.66v.48H22V70.52c0-.75-.27-1-.93-1a3.21,3.21,0,0,0-.56.06v2.63Zm-.59,1.33a.34.34,0,0,1-.35-.35.35.35,0,1,1,.7,0A.35.35,0,0,1,18.69,73.5Zm1,0a.34.34,0,0,1-.35-.35.35.35,0,0,1,.35-.35.34.34,0,0,1,.34.35A.35.35,0,0,1,19.66,73.5Z"/><path class="cls-6" d="M23.15,71.69h2.71a5.31,5.31,0,0,0,.05-.68c0-1-.36-1.48-1.44-1.48a4.33,4.33,0,0,0-.73,0V69.1a5.9,5.9,0,0,1,.78,0c1.45,0,2,.66,2,1.91a7.48,7.48,0,0,1-.11,1.21H23.15Zm1.19,1.46a.36.36,0,0,1,.36-.35.35.35,0,0,1,.36.35.36.36,0,0,1-.36.36A.35.35,0,0,1,24.34,73.15Z"/><path class="cls-6" d="M26.12,73.77l.08-.5a1.88,1.88,0,0,0,.65.11c.55,0,.88-.26.88-1.13V69.08h.6V72.2c0,.93-.34,1.66-1.52,1.66A2.88,2.88,0,0,1,26.12,73.77Z"/><path class="cls-6" d="M29.53,67.53h.61v4.16h.72v.48H29.53Z"/><path class="cls-6" d="M30.76,71.69h2.72a5.31,5.31,0,0,0,.05-.68c0-1-.37-1.48-1.45-1.48a4.21,4.21,0,0,0-.72,0V69.1a5.78,5.78,0,0,1,.78,0c1.44,0,2,.66,2,1.91a6.79,6.79,0,0,1,0,.73h.61v.48H30.76ZM32,68a.36.36,0,1,1,.36.35A.35.35,0,0,1,32,68Z"/><path class="cls-6" d="M34.59,71.69h.93V67.53h.6v4.64H34.59Z"/><path class="cls-6" d="M37.37,67.53H38v4.64h-.61Z"/><path class="cls-6" d="M43.58,72.17c-1.2,0-1.68-.53-1.72-1.39h-.19c-.47,0-.62.28-.51,1l.34,2.15h-.59l-.34-2.09c-.14-.89.19-1.49,1.13-1.49h.18A1.54,1.54,0,0,1,43.5,69a1.3,1.3,0,0,1,1.41,1.48v1.21h.65v.48Zm.73-1.59c0-.79-.32-1.1-.86-1.1a1,1,0,0,0-1,1.1c0,.75.35,1.11,1.19,1.11h.65Z"/><path class="cls-6" d="M45.47,71.69h1.32V69.08h.61v2.61h.72v.48H45.47ZM46,73.5a.34.34,0,0,1-.35-.35.35.35,0,1,1,.7,0A.35.35,0,0,1,46,73.5Zm1,0a.35.35,0,0,1-.35-.35A.35.35,0,0,1,47,72.8a.34.34,0,0,1,.34.35A.35.35,0,0,1,47,73.5Z"/><path class="cls-6" d="M49,71.61a.87.87,0,0,1-.87.56H48v-.48h.13c.33,0,.58-.19.58-1A1.55,1.55,0,0,1,50.34,69c1,0,1.45.56,1.45,1.56v1.13h.65v.48H50.37C49.62,72.17,49.21,72,49,71.61Zm2.19-1c0-.85-.31-1.18-.9-1.18s-.95.45-.95,1.18.32,1,1.11,1h.74Z"/><path class="cls-6" d="M56.84,71.69h.69v.48H52.35v-.48h.91V69.08h.6v.25a9.34,9.34,0,0,1-.07,1.18h0A2,2,0,0,1,55.59,69c.87,0,1.29.62,1.29,1.63C56.88,71,56.86,71.34,56.84,71.69Zm-1.35-2.2c-.88,0-1.52,1.14-1.63,2.2h2.35c0-.32,0-.68,0-1C56.25,70,56.05,69.49,55.49,69.49Z"/><path class="cls-6" d="M57.44,71.69h1V69.08H59v2.61h.68v.48H57.44Zm.32-3.57a.35.35,0,1,1,.7,0,.35.35,0,0,1-.35.35A.34.34,0,0,1,57.76,68.12Zm1,0a.35.35,0,0,1,.35-.35.35.35,0,0,1,.35.35.35.35,0,0,1-.35.35A.35.35,0,0,1,58.73,68.12Z"/><path class="cls-6" d="M59.58,71.69h.93V67.53h.6v4.64H59.58Z"/><path class="cls-6" d="M62.36,67.53H63v4.64h-.61Z"/><path class="cls-3" d="M60.48,24.84H45.82l-.44,21.67L45.1,60.3h6V55.53a3.15,3.15,0,1,1,6.3,0V60.3h3.06a.78.78,0,0,0,.78-.78V25.63a.78.78,0,0,0-.78-.79Z"/><path class="cls-4" d="M28.93,30.71v1.37s0,0,0,0h3.18s0,0,0,0V30.71s0,0,0,0H29s0,0,0,0Z"/><path class="cls-4" d="M42.75,32.08V30.71s0,0,0,0H39.53s-.05,0-.05,0v1.37s0,0,.05,0h3.18s0,0,0,0Z"/><path class="cls-4" d="M37.47,32.08V30.71s0,0,0,0H34.25s0,0,0,0v1.37s0,0,0,0h3.18s0,0,0,0Z"/><path class="cls-4" d="M23.65,30.71v1.37s0,0,0,0h3.18s.05,0,.05,0V30.71s0,0-.05,0H23.69s0,0,0,0Z"/><path class="cls-4" d="M57.24,35.06a1.2,1.2,0,0,0-.56-.15H51a1.09,1.09,0,0,0-1,.59,1,1,0,0,0-.1.43v5a1,1,0,0,0,.1.43,1.07,1.07,0,0,0,.4.44A1.09,1.09,0,0,0,51,42h5.7a1,1,0,0,0,.71-.27.89.89,0,0,0,.25-.32,1,1,0,0,0,.1-.43v-5a1,1,0,0,0-.1-.43,1.07,1.07,0,0,0-.4-.44Zm-5.85,1.32h4.88V40.5H51.39V36.38Z"/><path class="cls-4" d="M57.24,27a1.09,1.09,0,0,0-.56-.15H51a1.05,1.05,0,0,0-.71.27.89.89,0,0,0-.25.32,1,1,0,0,0-.1.43v5a1,1,0,0,0,.1.43,1.07,1.07,0,0,0,.4.44,1.2,1.2,0,0,0,.56.15h5.7a1.08,1.08,0,0,0,.71-.27,1.11,1.11,0,0,0,.25-.32,1,1,0,0,0,.1-.43v-5a1,1,0,0,0-.1-.43,1.07,1.07,0,0,0-.4-.44Zm-5.85,1.31h4.88v4.13H51.39V28.31Z"/><path class="cls-4" d="M57.23,43.13a1,1,0,0,0-.55-.15H51a1.09,1.09,0,0,0-.71.26,1,1,0,0,0-.25.33,1,1,0,0,0-.1.43v5a1,1,0,0,0,.1.43,1,1,0,0,0,.4.44A1.09,1.09,0,0,0,51,50h5.7a1.07,1.07,0,0,0,.71-.26,1,1,0,0,0,.25-.33,1,1,0,0,0,.1-.43V44a1,1,0,0,0-.1-.43,1,1,0,0,0-.41-.44Zm-5.84,1.31h4.88v4.13H51.39V44.44Z"/><path class="cls-4" d="M60.48,24.11H46.11V20.69a1.65,1.65,0,0,0-.13-.63,1.59,1.59,0,0,0-.58-.7,1.68,1.68,0,0,0-.88-.26,1.63,1.63,0,0,0-.57.1l-7.76,2.95a.74.74,0,0,0-.43,1,.73.73,0,0,0,1,.42l7.76-2.94h.05s.06,0,.09,0,0,0,0,0a.08.08,0,0,1,0,.05V36.32H21.76v-7a.13.13,0,0,1,.08-.12h0l9-3.42a.73.73,0,1,0-.52-1.37l-9,3.42h0a1.6,1.6,0,0,0-1,1.49v7.32a.78.78,0,0,0,0,.22.78.78,0,0,0,0,.22V59.44a1.55,1.55,0,0,0,.47,1.12,1.57,1.57,0,0,0,1.12.47H51.12a.72.72,0,0,0,.73-.73V55.53a2.42,2.42,0,0,1,4.84,0V60.3a.72.72,0,0,0,.73.73h3.06a1.55,1.55,0,0,0,1.07-.44A1.53,1.53,0,0,0,62,59.52V25.63a1.5,1.5,0,0,0-1.51-1.52ZM44.65,59.56H42.8V44.47a1.33,1.33,0,0,0-1.33-1.33H24.93a1.32,1.32,0,0,0-.94.39,1.34,1.34,0,0,0-.39.94V59.56H21.88a.11.11,0,0,1-.12-.12V37.78H44.65V59.56Zm-19.59-15H41.34v4.47H25.06V44.61Zm16.28,8.28H25.06V50.55H41.34v2.34ZM25.06,54.36H41.34v2.35H25.06V54.36Zm0,3.81H41.34v1.39H25.06V58.17Zm35.46,1.35a0,0,0,0,1,0,0H58.16v-4a3.89,3.89,0,1,0-7.77,0v4H46.11V37.05a.78.78,0,0,0,0-.22.78.78,0,0,0,0-.22v-11h14.4s0,0,0,0V59.52Z"/></svg>