<svg id="Layer_1" data-name="Layer 1" xmlns="http://www.w3.org/2000/svg" xmlns:xlink="http://www.w3.org/1999/xlink" viewBox="0 0 80 84"><defs><style>.cls-1{fill:#fff;}.cls-2{opacity:0.03;}.cls-3{fill:#d5b16c;}.cls-4{fill:#1d1d1b;}.cls-5{fill:url(#linear-gradient);}.cls-6{fill:#cfa868;}</style><linearGradient id="linear-gradient" x1="40.12" y1="73.42" x2="40.12" y2="38.11" gradientUnits="userSpaceOnUse"><stop offset="0" stop-color="#fff"/><stop offset="1" stop-color="#fff" stop-opacity="0"/></linearGradient></defs><rect class="cls-1" width="80" height="84"/><g class="cls-2"><path class="cls-3" d="M74.46,23.87H72.59v-7a1.51,1.51,0,0,0-.36-1L66.35,9.07a1.49,1.49,0,0,0-2.26,0l-5.88,6.85a1.51,1.51,0,0,0-.36,1v7h-8v-7a1.51,1.51,0,0,0-.36-1L43.66,9.07a1.5,1.5,0,0,0-2.27,0l-5.88,6.85a1.5,1.5,0,0,0-.35,1v7H27.21v-7a1.47,1.47,0,0,0-.37-1L21,9.07a1.49,1.49,0,0,0-2.26,0l-5.88,6.85a1.51,1.51,0,0,0-.36,1v7H10.68a1.27,1.27,0,0,0-1.27,1.27V31a1.27,1.27,0,0,0,1.27,1.27H74.46A1.27,1.27,0,0,0,75.73,31V25.14a1.27,1.27,0,0,0-1.27-1.27Z"/><path class="cls-4" d="M9.33,59.5a2.39,2.39,0,0,0,1.35.41h.64V70.08a2.59,2.59,0,0,0,1.16,2.19,2.66,2.66,0,0,0,1.47.45H25.71a2.56,2.56,0,0,0,1-.21,2.62,2.62,0,0,0,1.61-2.43V59.91H34V70.08a2.56,2.56,0,0,0,.21,1,2.62,2.62,0,0,0,2.43,1.61H48.41a2.48,2.48,0,0,0,1-.21A2.62,2.62,0,0,0,51,70.08V59.91H56.7V70.08a2.75,2.75,0,0,0,.21,1,2.62,2.62,0,0,0,2.43,1.61H71.1a2.56,2.56,0,0,0,1-.21,2.66,2.66,0,0,0,1.61-2.43V59.91h.72a2.29,2.29,0,0,0,.94-.19,2.37,2.37,0,0,0,1.06-.87,2.4,2.4,0,0,0,.42-1.35V51.65a2.42,2.42,0,0,0-2.42-2.41h-.72V45.13a1.15,1.15,0,0,0-2.29,0h0v5.25a1.16,1.16,0,0,0,.33.81,1.18,1.18,0,0,0,.81.33h1.92l.06,0a.64.64,0,0,1,0,.07V57.5s0,0,0,0l0,.06-.07,0H10.63l-.06,0a.14.14,0,0,1,0-.07V51.65a.43.43,0,0,1,0,0l0-.06.07,0h1.78a1.13,1.13,0,0,0,1.14-1.14v-17H26.06v17a1.16,1.16,0,0,0,.33.81,1.18,1.18,0,0,0,.82.33h7.95a1.14,1.14,0,0,0,1.14-1.14v-17H48.75v17a1.13,1.13,0,0,0,.34.81,1.16,1.16,0,0,0,.81.33h8a1.18,1.18,0,0,0,.81-.33,1.16,1.16,0,0,0,.33-.81v-17H71.45v4.1a1.15,1.15,0,0,0,2.29,0v-4.1h.72a2.39,2.39,0,0,0,2-1.07A2.4,2.4,0,0,0,76.88,31V25.14a2.3,2.3,0,0,0-.2-.94,2.4,2.4,0,0,0-2.22-1.47h-.72V16.89a2.65,2.65,0,0,0-.64-1.72h0L67.22,8.33h0a2.65,2.65,0,0,0-.92-.69,2.65,2.65,0,0,0-2.16,0,2.65,2.65,0,0,0-.92.69h0l-5.88,6.84h0a2.65,2.65,0,0,0-.64,1.72v5.84H51V16.89a2.64,2.64,0,0,0-.63-1.72h0L44.52,8.33h0a2.48,2.48,0,0,0-.92-.69,2.62,2.62,0,0,0-3.07.69h0l-5.88,6.84h0A2.6,2.6,0,0,0,34,16.89v5.84H28.35V16.89a2.65,2.65,0,0,0-.64-1.72h0L21.83,8.33h0a2.65,2.65,0,0,0-.92-.69,2.69,2.69,0,0,0-1.08-.23,2.76,2.76,0,0,0-1.08.23,2.65,2.65,0,0,0-.92.69h0L12,15.17h0a2.64,2.64,0,0,0-.63,1.72v5.84h-.64a2.47,2.47,0,0,0-.94.19,2.43,2.43,0,0,0-1.48,2.22V31a2.47,2.47,0,0,0,1.07,2,2.4,2.4,0,0,0,1.35.42h.64V49.24h-.64a2.29,2.29,0,0,0-.94.19,2.37,2.37,0,0,0-1.06.87,2.4,2.4,0,0,0-.42,1.35V57.5a2.3,2.3,0,0,0,.2.94,2.37,2.37,0,0,0,.87,1.06ZM26,70.22a.35.35,0,0,1-.12.15.34.34,0,0,1-.2.06H14a.28.28,0,0,1-.13,0,.38.38,0,0,1-.16-.12.59.59,0,0,1-.06-.2V59.91H26.06V70.08a.32.32,0,0,1,0,.14Zm45.39,0a.37.37,0,0,1-.13.15.29.29,0,0,1-.19.06H59.34a.35.35,0,0,1-.14,0,.35.35,0,0,1-.15-.12.34.34,0,0,1-.06-.2V59.91H71.45V70.08a.32.32,0,0,1,0,.14ZM48.75,59.91V70.08a.32.32,0,0,1,0,.14.29.29,0,0,1-.12.15.31.31,0,0,1-.19.06H36.65a.29.29,0,0,1-.14,0,.35.35,0,0,1-.15-.12.34.34,0,0,1-.06-.2V59.91ZM34,49.24H28.35V33.41H34V49.24Zm22.69,0H51V33.41H56.7V49.24ZM10.63,31.11l-.06-.05a.14.14,0,0,1,0-.07V25.14s0,0,0-.05l0-.05a.08.08,0,0,1,.07,0h1.78a1.14,1.14,0,0,0,1.14-1.15v-7a.36.36,0,0,1,.09-.22h0l5.88-6.85h0a.27.27,0,0,1,.12-.09.32.32,0,0,1,.14,0l.15,0,.12.09L26,16.67h0a.35.35,0,0,1,.08.22v7a1.16,1.16,0,0,0,.33.81,1.19,1.19,0,0,0,.82.34h7.95a1.15,1.15,0,0,0,.8-.34,1.13,1.13,0,0,0,.34-.81v-7a.35.35,0,0,1,.08-.22h0l5.88-6.85h0a.47.47,0,0,1,.12-.09.4.4,0,0,1,.15,0,.32.32,0,0,1,.14,0,.47.47,0,0,1,.12.09l5.88,6.85h0a.35.35,0,0,1,.08.22v7a1.13,1.13,0,0,0,.34.81,1.17,1.17,0,0,0,.81.34h8a1.19,1.19,0,0,0,.81-.34,1.16,1.16,0,0,0,.33-.81v-7a.31.31,0,0,1,.09-.22h0L65,9.82h0a.38.38,0,0,1,.13-.09.34.34,0,0,1,.28,0,.34.34,0,0,1,.12.09l5.88,6.85h0a.31.31,0,0,1,.09.22v7a1.16,1.16,0,0,0,.33.81,1.19,1.19,0,0,0,.81.34h1.92l.06.05a.64.64,0,0,1,0,.07V31a.43.43,0,0,1,0,.05l0,.06-.07,0H10.63Z"/><path class="cls-4" d="M19.83,28.73A1.15,1.15,0,0,0,21,27.59h0a1.15,1.15,0,0,0-2.29,0h0a1.14,1.14,0,0,0,1.14,1.14Z"/><path class="cls-4" d="M42.28,28.73a1.15,1.15,0,0,0,1.15-1.14h0a1.15,1.15,0,0,0-2.29,0h0a1.14,1.14,0,0,0,1.14,1.14Z"/><path class="cls-4" d="M65.4,28.73a1.15,1.15,0,0,0,1.15-1.14h0a1.15,1.15,0,0,0-2.29,0h0a1.14,1.14,0,0,0,1.14,1.14Z"/><path class="cls-4" d="M18.69,54.19h0a1.15,1.15,0,1,0,2.29,0h0a1.15,1.15,0,0,0-2.29,0Z"/><path class="cls-4" d="M41.14,54.19h0a1.15,1.15,0,1,0,2.29,0h0a1.15,1.15,0,0,0-2.29,0Z"/><path class="cls-4" d="M64.26,54.19h0a1.15,1.15,0,1,0,2.29,0h0a1.15,1.15,0,0,0-2.29,0Z"/></g><rect class="cls-5" x="0.24" y="38.11" width="79.76" height="35.31"/><path class="cls-6" d="M26.66,71.69h.73v.48h-.73v1.56s-1.08.09-2,.09c-2,0-2.86-.61-2.86-2A4.62,4.62,0,0,1,22,70.6l.62-.12a5,5,0,0,0-.18,1.28c0,1.14.63,1.58,2.33,1.58.64,0,1.31,0,1.31,0V72.17h-.66c-1.27,0-1.73-.6-1.73-1.53A1.55,1.55,0,0,1,25.34,69a4,4,0,0,1,1.32.23Zm-.59-2a1.92,1.92,0,0,0-.79-.16,1,1,0,0,0-1,1.09c0,.75.35,1.12,1.19,1.12h.58Zm-1.62-1.52a.35.35,0,1,1,.7,0,.35.35,0,0,1-.35.35A.34.34,0,0,1,24.45,68.12Zm1,0a.36.36,0,0,1,.36-.35.34.34,0,0,1,.34.35.35.35,0,0,1-.34.35A.35.35,0,0,1,25.42,68.12Z"/><path class="cls-6" d="M27.3,71.69h1V69.08h.61v3.09H27.3Zm.32-3.62a2.81,2.81,0,0,1,.45,0,.33.33,0,0,1-.18-.31c0-.32.23-.65.84-.65l.35,0-.06.37c-.06,0-.19,0-.31,0s-.37.11-.37.27.14.3.51.3h.36v.38H27.62Z"/><path class="cls-6" d="M30.07,67.53h.61v4.64h-.61Z"/><path class="cls-6" d="M31.64,71.69h2.12a2.07,2.07,0,0,0-1.66-2.23l.15-.51a2.59,2.59,0,0,1,2.1,2.74h.51v.48H31.64Z"/><path class="cls-6" d="M34.77,71.69h2.72a5.31,5.31,0,0,0,0-.68c0-1-.37-1.48-1.45-1.48a4.4,4.4,0,0,0-.73,0V69.1a6.06,6.06,0,0,1,.79,0c1.44,0,2,.66,2,1.91a6.79,6.79,0,0,1,0,.73h.61v.48H34.77Z"/><path class="cls-6" d="M38.6,71.69h.93V67.53h.6v4.64H38.6Z"/><path class="cls-6" d="M41.38,67.53H42v4.64h-.61Z"/><path class="cls-6" d="M47.59,72.17c-1.2,0-1.68-.53-1.73-1.39h-.18c-.47,0-.63.28-.51,1l.34,2.15h-.59l-.34-2.09c-.14-.89.19-1.49,1.13-1.49h.18A1.52,1.52,0,0,1,47.51,69a1.3,1.3,0,0,1,1.41,1.48v1.21h.65v.48Zm.73-1.59c0-.79-.32-1.1-.86-1.1a1,1,0,0,0-1,1.1c0,.75.35,1.11,1.19,1.11h.65Z"/><path class="cls-6" d="M49.48,71.69H50.8V69.08h.61v2.61h.72v.48H49.48ZM50,73.5a.34.34,0,0,1-.35-.35.35.35,0,1,1,.7,0A.35.35,0,0,1,50,73.5Zm1,0a.34.34,0,0,1-.35-.35A.35.35,0,0,1,51,72.8a.34.34,0,0,1,.34.35A.35.35,0,0,1,51,73.5Z"/><path class="cls-6" d="M53,71.61a.87.87,0,0,1-.87.56H52v-.48h.13c.33,0,.57-.19.57-1A1.56,1.56,0,0,1,54.35,69c1,0,1.44.56,1.44,1.56v1.13h.66v.48H54.38C53.63,72.17,53.22,72,53,71.61Zm2.19-1c0-.85-.31-1.18-.9-1.18s-.95.45-.95,1.18.31,1,1.11,1h.74Z"/><path class="cls-6" d="M60.84,71.69h.7v.48H56.36v-.48h.91V69.08h.6v.25a9.34,9.34,0,0,1-.07,1.18h0A2,2,0,0,1,59.6,69c.87,0,1.28.62,1.28,1.63C60.88,71,60.87,71.34,60.84,71.69Zm-1.34-2.2c-.88,0-1.52,1.14-1.63,2.2h2.35c0-.32,0-.68,0-1C60.26,70,60.06,69.49,59.5,69.49Z"/><path class="cls-6" d="M61.45,71.69h1V69.08H63v3.09H61.45Zm.32-3.57a.35.35,0,0,1,.7,0,.35.35,0,0,1-.35.35A.34.34,0,0,1,61.77,68.12Zm1,0a.35.35,0,0,1,.35-.35.34.34,0,0,1,.34.35.35.35,0,1,1-.69,0Z"/><path class="cls-3" d="M63.05,29.67H61.84V25.19a1,1,0,0,0-.23-.63l-3.77-4.39a1,1,0,0,0-1.45,0l-3.78,4.39a1,1,0,0,0-.23.63v4.48H47.27V25.19a1,1,0,0,0-.23-.63l-3.77-4.39a1,1,0,0,0-1.46,0L38,24.56a1,1,0,0,0-.23.63v4.48H32.7V25.19a1,1,0,0,0-.23-.63L28.7,20.17a1,1,0,0,0-1.45,0l-3.78,4.39a1,1,0,0,0-.23.63v4.48H22.09a.81.81,0,0,0-.81.81v3.76a.82.82,0,0,0,.81.82h41a.82.82,0,0,0,.81-.82V30.48a.81.81,0,0,0-.81-.81Z"/><path class="cls-4" d="M21.23,52.54a1.51,1.51,0,0,0,.86.27h.41v6.53a1.66,1.66,0,0,0,.14.66,1.63,1.63,0,0,0,.61.74,1.71,1.71,0,0,0,.94.29h7.56a1.85,1.85,0,0,0,.66-.13,1.72,1.72,0,0,0,.74-.62,1.66,1.66,0,0,0,.29-.94V52.81h3.63v6.53a1.66,1.66,0,0,0,.14.66,1.7,1.7,0,0,0,.61.74,1.72,1.72,0,0,0,1,.29h7.55A1.85,1.85,0,0,0,47,60.9a1.72,1.72,0,0,0,.74-.62,1.66,1.66,0,0,0,.29-.94V52.81h3.64v6.53a1.5,1.5,0,0,0,.13.66,1.7,1.7,0,0,0,.61.74,1.72,1.72,0,0,0,1,.29h7.55a1.8,1.8,0,0,0,.66-.13,1.72,1.72,0,0,0,.74-.62,1.66,1.66,0,0,0,.29-.94V52.81h.47a1.53,1.53,0,0,0,.6-.12,1.62,1.62,0,0,0,.68-.56,1.54,1.54,0,0,0,.27-.87V47.5A1.57,1.57,0,0,0,63.05,46h-.47V43.32a.74.74,0,0,0-1.47,0h0v3.37a.74.74,0,0,0,.22.52.74.74,0,0,0,.51.21h1.24s0,0,0,0l0,0v3.76s0,0,0,0l0,0h-41a0,0,0,0,1,0,0,.05.05,0,0,1,0,0V47.47s0,0,0,0l0,0h1.15a.72.72,0,0,0,.73-.73V35.79h8v10.9a.72.72,0,0,0,.73.73h5.11a.72.72,0,0,0,.73-.73V35.79h8v10.9a.74.74,0,0,0,.22.52.74.74,0,0,0,.51.21h5.11a.78.78,0,0,0,.52-.21.73.73,0,0,0,.21-.52V35.79h8v2.63a.74.74,0,1,0,1.47,0V35.79h.47a1.53,1.53,0,0,0,.6-.12,1.62,1.62,0,0,0,.68-.56,1.54,1.54,0,0,0,.27-.87V30.48a1.59,1.59,0,0,0-.69-1.28,1.51,1.51,0,0,0-.86-.27h-.47V25.19a1.68,1.68,0,0,0-.41-1.11h0L58.4,19.69h0a1.5,1.5,0,0,0-.59-.44,1.65,1.65,0,0,0-.69-.15,1.68,1.68,0,0,0-.69.15,1.66,1.66,0,0,0-.59.44h0l-3.78,4.39h0a1.72,1.72,0,0,0-.4,1.11v3.74H48V25.19a1.73,1.73,0,0,0-.41-1.11h0l-3.78-4.39h0a1.58,1.58,0,0,0-.59-.44,1.65,1.65,0,0,0-.69-.15,1.68,1.68,0,0,0-.69.15,1.58,1.58,0,0,0-.59.44h0l-3.78,4.39h0a1.73,1.73,0,0,0-.41,1.11v3.74H33.44V25.19A1.73,1.73,0,0,0,33,24.08h0l-3.78-4.39h0a1.58,1.58,0,0,0-.59-.44A1.65,1.65,0,0,0,28,19.1a1.68,1.68,0,0,0-.69.15,1.58,1.58,0,0,0-.59.44h0l-3.78,4.39h0a1.73,1.73,0,0,0-.41,1.11v3.74h-.41a1.54,1.54,0,0,0-.6.13,1.56,1.56,0,0,0-.95,1.42v3.76a1.5,1.5,0,0,0,.13.6,1.44,1.44,0,0,0,.56.68,1.51,1.51,0,0,0,.86.27h.41V46h-.41a1.56,1.56,0,0,0-1.55,1.55v3.76a1.5,1.5,0,0,0,.13.6,1.44,1.44,0,0,0,.56.68ZM32,59.42a.16.16,0,0,1-.08.1.19.19,0,0,1-.12,0H24.19l-.08,0a.16.16,0,0,1-.1-.08.21.21,0,0,1,0-.12V52.81h8v6.53a.19.19,0,0,1,0,.08Zm29.14,0a.22.22,0,0,1-.2.14H53.34l-.09,0a.19.19,0,0,1-.1-.08.21.21,0,0,1,0-.12V52.81h8v6.53a.19.19,0,0,1,0,.08ZM46.54,52.81v6.53a.19.19,0,0,1,0,.08.22.22,0,0,1-.2.14H38.77l-.09,0a.19.19,0,0,1-.1-.08.21.21,0,0,1,0-.12V52.81ZM37.07,46H33.44V35.79h3.63V46Zm14.58,0H48V35.79h3.64V46ZM22.06,34.31a0,0,0,0,1,0,0,.05.05,0,0,1,0,0V30.48s0,0,0,0,0,0,0,0l0,0h1.15a.72.72,0,0,0,.73-.73V25.19A.2.2,0,0,1,24,25h0l3.77-4.39h0a.21.21,0,0,1,.08-.06l.09,0,.09,0a.16.16,0,0,1,.08.06L31.92,25h0a.25.25,0,0,1,0,.15v4.48a.72.72,0,0,0,.73.73h5.11a.72.72,0,0,0,.73-.73V25.19A.2.2,0,0,1,38.6,25h0l3.77-4.39h0a.21.21,0,0,1,.08-.06l.09,0,.09,0a.16.16,0,0,1,.08.06L46.49,25h0a.25.25,0,0,1,0,.15v4.48a.74.74,0,0,0,.22.52.74.74,0,0,0,.51.21h5.11a.78.78,0,0,0,.52-.21.73.73,0,0,0,.21-.52V25.19a.2.2,0,0,1,.06-.15h0l3.77-4.39h0a.21.21,0,0,1,.08-.06l.09,0,.09,0a.16.16,0,0,1,.08.06L61.06,25h0a.25.25,0,0,1,0,.15v4.48a.74.74,0,0,0,.22.52.74.74,0,0,0,.51.21h1.24s0,0,0,0l0,0v3.76s0,0,0,0l0,0h-41Z"/><path class="cls-4" d="M28,32.79a.74.74,0,0,0,.74-.73h0a.74.74,0,1,0-1.47,0h0a.73.73,0,0,0,.73.73Z"/><path class="cls-4" d="M42.39,32.79a.73.73,0,0,0,.73-.73h0a.74.74,0,1,0-1.47,0h0a.74.74,0,0,0,.74.73Z"/><path class="cls-4" d="M57.23,32.79a.73.73,0,0,0,.73-.73h0a.74.74,0,1,0-1.47,0h0a.74.74,0,0,0,.74.73Z"/><path class="cls-4" d="M27.24,49.14h0a.74.74,0,0,0,1.47,0h0a.74.74,0,1,0-1.47,0Z"/><path class="cls-4" d="M41.65,49.14h0a.74.74,0,0,0,1.47,0h0a.74.74,0,1,0-1.47,0Z"/><path class="cls-4" d="M56.49,49.14h0a.74.74,0,0,0,1.47,0h0a.74.74,0,1,0-1.47,0Z"/></svg>